<svg width="22" height="22" viewBox="0 0 22 22" fill="none" xmlns="http://www.w3.org/2000/svg">
<g clip-path="url(#clip0_725_4153)">
<path d="M18.775 11C18.775 12.839 18.1235 14.6107 16.9484 16.0068C16.3908 15.1764 15.6633 14.4688 14.8098 13.9331C14.4055 13.6793 13.9787 13.4677 13.5362 13.3004C13.6787 13.1908 13.8147 13.0716 13.9432 12.9431C14.7238 12.1625 15.1624 11.1038 15.1624 9.99988C15.1624 8.89594 14.7238 7.83723 13.9432 7.05663C13.1626 6.27603 12.1039 5.8375 11 5.8375C10.4534 5.8375 9.91213 5.94516 9.40713 6.15434C8.90213 6.36352 8.44327 6.67012 8.05676 7.05663C7.67024 7.44314 7.36365 7.902 7.15447 8.407C6.94529 8.91201 6.83763 9.45326 6.83763 9.99988C6.83763 10.5465 6.94529 11.0877 7.15447 11.5927C7.36365 12.0978 7.67024 12.5566 8.05676 12.9431C8.18485 13.0712 8.32088 13.1905 8.46391 13.3004C8.03974 13.4609 7.62996 13.6619 7.24053 13.9019C6.36592 14.4408 5.62056 15.1597 5.05176 16.0069C3.87653 14.6109 3.225 12.839 3.225 11C3.225 8.93794 4.04415 6.96034 5.50224 5.50224C6.96034 4.04415 8.93794 3.225 11 3.225C13.0621 3.225 15.0397 4.04415 16.4978 5.50224C17.9558 6.96034 18.775 8.93794 18.775 11ZM11 18.775C9.16927 18.775 7.40511 18.1293 6.01197 16.9641C6.49019 16.1785 7.14861 15.5149 7.93539 15.0301C8.85671 14.4623 9.91774 14.1618 11 14.1623C11 14.1623 11 14.1623 11 14.1623C11 14.1623 11 14.1623 11 14.1623C12.0988 14.1619 13.1754 14.4717 14.1059 15.0559C14.875 15.5388 15.5185 16.1929 15.9881 16.9641C14.5949 18.1293 12.8307 18.775 11 18.775ZM12.0858 12.6213C11.7416 12.7639 11.3726 12.8372 11 12.8372H11C10.2475 12.8372 9.52578 12.5383 8.99367 12.0062C8.46156 11.4741 8.16262 10.7524 8.16262 9.99988C8.16262 9.24736 8.46156 8.52566 8.99367 7.99355C9.52578 7.46144 10.2475 7.1625 11 7.1625C11.3726 7.1625 11.7416 7.23589 12.0858 7.37848C12.4301 7.52107 12.7429 7.73007 13.0063 7.99355C13.2698 8.25702 13.4788 8.56981 13.6214 8.91406C13.764 9.2583 13.8374 9.62727 13.8374 9.99988C13.8374 10.3725 13.764 10.7414 13.6214 11.0857C13.4788 11.4299 13.2698 11.7427 13.0063 12.0062C12.7429 12.2697 12.4301 12.4787 12.0858 12.6213ZM4.56533 17.4347C6.27191 19.1413 8.58653 20.1 11 20.1C13.4135 20.1 15.7281 19.1413 17.4347 17.4347C19.1413 15.7281 20.1 13.4135 20.1 11C20.1 8.58653 19.1413 6.27191 17.4347 4.56533C15.7281 2.85875 13.4135 1.9 11 1.9C8.58653 1.9 6.27191 2.85875 4.56533 4.56533C2.85875 6.27191 1.9 8.58653 1.9 11C1.9 13.4135 2.85875 15.7281 4.56533 17.4347Z" fill="#181815" stroke="#181815" stroke-width="0.2"/>
</g>
<defs>
<clipPath id="clip0_725_4153">
<rect width="22" height="22" fill="white"/>
</clipPath>
</defs>
</svg>
