<svg width="22" height="22" viewBox="0 0 22 22" fill="none" xmlns="http://www.w3.org/2000/svg">
<g clip-path="url(#clip0_632_4176)">
<path d="M5 5H20L17.5 14H5V5Z" fill="#FFD203"/>
<path d="M3.33333 14.2035V3.20345H1.5V1.37012H4.25C4.49312 1.37012 4.72627 1.46669 4.89818 1.6386C5.07009 1.81051 5.16667 2.04367 5.16667 2.28678V13.2868H16.5682L18.4015 5.95345H5V4.12012H19.5767C19.716 4.12012 19.8535 4.15189 19.9787 4.21301C20.1039 4.27413 20.2136 4.36299 20.2993 4.47284C20.385 4.58269 20.4446 4.71063 20.4734 4.84695C20.5023 4.98327 20.4997 5.12437 20.4658 5.25953L18.1742 14.4262C18.1245 14.6244 18.01 14.8004 17.8489 14.9261C17.6878 15.0518 17.4894 15.1201 17.285 15.1201H4.25C4.00688 15.1201 3.77373 15.0235 3.60182 14.8516C3.42991 14.6797 3.33333 14.4466 3.33333 14.2035ZM5.16667 20.6201C4.68044 20.6201 4.21412 20.427 3.8703 20.0831C3.52649 19.7393 3.33333 19.273 3.33333 18.7868C3.33333 18.3006 3.52649 17.8342 3.8703 17.4904C4.21412 17.1466 4.68044 16.9535 5.16667 16.9535C5.6529 16.9535 6.11921 17.1466 6.46303 17.4904C6.80685 17.8342 7 18.3006 7 18.7868C7 19.273 6.80685 19.7393 6.46303 20.0831C6.11921 20.427 5.6529 20.6201 5.16667 20.6201ZM16.1667 20.6201C15.6804 20.6201 15.2141 20.427 14.8703 20.0831C14.5265 19.7393 14.3333 19.273 14.3333 18.7868C14.3333 18.3006 14.5265 17.8342 14.8703 17.4904C15.2141 17.1466 15.6804 16.9535 16.1667 16.9535C16.6529 16.9535 17.1192 17.1466 17.463 17.4904C17.8068 17.8342 18 18.3006 18 18.7868C18 19.273 17.8068 19.7393 17.463 20.0831C17.1192 20.427 16.6529 20.6201 16.1667 20.6201Z" fill="#181815"/>
</g>
<defs>
<clipPath id="clip0_632_4176">
<rect width="22" height="22" fill="white"/>
</clipPath>
</defs>
</svg>
