<svg width="18" height="19" viewBox="0 0 18 19" fill="none" xmlns="http://www.w3.org/2000/svg">
<path d="M13.2138 3.00284L11.8121 2.23138L11.9378 0.343798L14.7412 1.88671L13.2138 3.00284ZM11.6416 7.51867L13.0881 4.89042L13.789 5.27615L14.2023 4.52523L9.99706 2.21085L9.58378 2.96178L10.2846 3.34751L8.83817 5.97576C6.90378 4.91115 5.02801 4.6028 3.88735 6.67536L1.05724 10.9881C1.05724 10.9881 -0.245454 14.1846 4.66061 16.8847C9.56667 19.5848 11.5702 16.774 11.5702 16.774L13.6995 12.0756C14.8401 10.003 13.576 8.58328 11.6416 7.51867ZM10.8513 13.9324L3.8426 10.0751C3.8426 10.0751 4.52537 8.00488 5.28909 7.44682C6.0528 6.88876 6.85518 6.84116 8.01161 7.47761L10.8151 9.02053C11.9715 9.65698 12.3606 10.3603 12.2977 11.3041C12.2349 12.2479 10.8513 13.9324 10.8513 13.9324Z" fill="black"/>
</svg>
