<svg width="18" height="18" viewBox="0 0 18 18" fill="none" xmlns="http://www.w3.org/2000/svg">
<g clip-path="url(#clip0_609_27976)">
<path d="M5 4.04395V1.79395C5 1.59503 5.07902 1.40427 5.21967 1.26362C5.36032 1.12296 5.55109 1.04395 5.75 1.04395H14.75C14.9489 1.04395 15.1397 1.12296 15.2803 1.26362C15.421 1.40427 15.5 1.59503 15.5 1.79395V12.2939C15.5 12.4929 15.421 12.6836 15.2803 12.8243C15.1397 12.9649 14.9489 13.0439 14.75 13.0439H12.5V15.2939C12.5 15.7079 12.1625 16.0439 11.7448 16.0439H2.75525C2.65635 16.0445 2.5583 16.0256 2.46674 15.9882C2.37519 15.9507 2.29192 15.8956 2.22174 15.8259C2.15156 15.7562 2.09584 15.6734 2.05779 15.5821C2.01974 15.4908 2.0001 15.3929 2 15.2939L2.00225 4.79395C2.00225 4.37995 2.33975 4.04395 2.7575 4.04395H5ZM3.50225 5.54395L3.5 14.5439H11V5.54395H3.50225ZM6.5 4.04395H12.5V11.5439H14V2.54395H6.5V4.04395Z" fill="#181815"/>
</g>
<defs>
<clipPath id="clip0_609_27976">
<rect width="18" height="18" fill="white"/>
</clipPath>
</defs>
</svg>
