<svg width="18" height="19" viewBox="0 0 18 19" fill="none" xmlns="http://www.w3.org/2000/svg">
<path fill-rule="evenodd" clip-rule="evenodd" d="M5.57274 4.62851L5.75833 3.9827C5.87173 4.03023 5.98667 4.07888 6.10358 4.12837C7.01845 4.51564 8.05385 4.95394 9.41252 5.30204C10.9802 5.70369 12.9589 5.98355 15.7502 5.9993L15.5 7L15.6095 10.5896C15.6095 10.5896 16.0059 14.456 14.5 16C13.5854 16.9377 11.5 17.5 11.5 17.5C8.32822 17.8888 1.21877 15.8251 1.01022 12.9223C0.801665 10.0194 3.83479 6.52916 5.57274 4.62851ZM6.38316 2.07632C6.36012 2.06676 6.33694 2.05813 6.31364 2.05041L6.61551 1L16.5 3L16.2426 4.02963C16.1649 4.01027 16.0837 4 16 4C13.2095 4 11.3306 3.72888 9.90891 3.36462C8.70594 3.05641 7.81527 2.68007 6.90484 2.29539L6.90482 2.29538L6.90475 2.29535C6.73234 2.2225 6.55923 2.14936 6.38316 2.07632ZM7.0422 13.7006C9.20467 14.3145 11.3663 13.3725 11.8704 11.5966C12.3745 9.82078 11.0301 7.88357 8.86762 7.26975C6.70514 6.65593 4.54347 7.59793 4.0394 9.37378C3.53532 11.1496 4.87972 13.0868 7.0422 13.7006Z" fill="black"/>
<path d="M5.75833 3.9827L5.95161 3.52157L5.43307 3.30423L5.27778 3.8446L5.75833 3.9827ZM5.57274 4.62851L5.94173 4.96592L6.02089 4.87935L6.05329 4.76662L5.57274 4.62851ZM6.10358 4.12837L5.90867 4.58882L5.90867 4.58882L6.10358 4.12837ZM9.41252 5.30204L9.28843 5.7864L9.41252 5.30204ZM15.7502 5.9993L16.2352 6.12057L16.3897 5.5029L15.753 5.49931L15.7502 5.9993ZM15.5 7L15.0149 6.87873L14.9981 6.94597L15.0002 7.01524L15.5 7ZM15.6095 10.5896L15.1097 10.6049L15.1102 10.6228L15.1121 10.6407L15.6095 10.5896ZM14.5 16L14.1421 15.6509H14.1421L14.5 16ZM11.5 17.5L11.5608 17.9963L11.596 17.992L11.6302 17.9828L11.5 17.5ZM1.01022 12.9223L1.50893 12.8864L1.01022 12.9223ZM6.31364 2.05041L5.83309 1.91231L5.70043 2.37391L6.15633 2.52502L6.31364 2.05041ZM6.38316 2.07632L6.19158 2.53816L6.19158 2.53816L6.38316 2.07632ZM6.61551 1L6.71467 0.509931L6.2624 0.418422L6.13496 0.861899L6.61551 1ZM16.5 3L16.9851 3.12127L17.112 2.61369L16.5992 2.50993L16.5 3ZM16.2426 4.02963L16.1217 4.51479L16.6065 4.6356L16.7277 4.1509L16.2426 4.02963ZM9.90891 3.36462L10.033 2.88027L9.90891 3.36462ZM6.90484 2.29539L6.70788 2.75496L6.71023 2.75596L6.90484 2.29539ZM6.90482 2.29538L7.10179 1.83579L7.09779 1.83412L6.90482 2.29538ZM6.90475 2.29535L6.71014 2.75592L6.71177 2.75661L6.90475 2.29535ZM11.8704 11.5966L12.3514 11.7332L11.8704 11.5966ZM7.0422 13.7006L6.90567 14.1816L7.0422 13.7006ZM8.86762 7.26975L9.00415 6.78875L8.86762 7.26975ZM5.27778 3.8446L5.09219 4.49041L6.05329 4.76662L6.23888 4.1208L5.27778 3.8446ZM6.29849 3.66793C6.18173 3.6185 6.06596 3.56949 5.95161 3.52157L5.56506 4.44383C5.67749 4.49096 5.79161 4.53927 5.90867 4.58882L6.29849 3.66793ZM9.53662 4.81769C8.21753 4.47973 7.21227 4.05474 6.29849 3.66793L5.90867 4.58882C6.82463 4.97655 7.89017 5.42815 9.28843 5.7864L9.53662 4.81769ZM15.753 5.49931C12.9947 5.48375 11.0576 5.20739 9.53662 4.81769L9.28843 5.7864C10.9027 6.19999 12.923 6.48336 15.7474 6.49929L15.753 5.49931ZM15.9851 7.12127L16.2352 6.12057L15.2651 5.87803L15.0149 6.87873L15.9851 7.12127ZM16.1092 10.5744L15.9998 6.98476L15.0002 7.01524L15.1097 10.6049L16.1092 10.5744ZM14.8579 16.3491C15.3116 15.884 15.6002 15.2689 15.7874 14.6475C15.9759 14.0219 16.0718 13.3556 16.118 12.7541C16.1644 12.1508 16.1617 11.5998 16.1476 11.2002C16.1405 11 16.1305 10.8367 16.1222 10.7226C16.1181 10.6654 16.1143 10.6206 16.1116 10.5894C16.1102 10.5738 16.1091 10.5617 16.1083 10.5532C16.1079 10.5489 16.1075 10.5456 16.1073 10.5431C16.1072 10.5419 16.1071 10.5409 16.107 10.5402C16.107 10.5398 16.1069 10.5395 16.1069 10.5392C16.1069 10.5391 16.1069 10.539 16.1069 10.5389C16.1069 10.5388 16.1068 10.5386 15.6095 10.5896C15.1121 10.6407 15.1121 10.6406 15.112 10.6405C15.112 10.6405 15.112 10.6404 15.112 10.6404C15.112 10.6404 15.112 10.6404 15.112 10.6405C15.1121 10.6407 15.1121 10.6411 15.1122 10.6418C15.1123 10.6431 15.1125 10.6453 15.1128 10.6484C15.1134 10.6546 15.1143 10.6643 15.1155 10.6775C15.1178 10.7037 15.1211 10.7434 15.1249 10.795C15.1324 10.8983 15.1416 11.0491 15.1482 11.2355C15.1614 11.6091 15.1637 12.1212 15.1209 12.6775C15.078 13.2356 14.9907 13.8253 14.8299 14.359C14.6679 14.8968 14.4414 15.344 14.1421 15.6509L14.8579 16.3491ZM11.5 17.5C11.6302 17.9828 11.6302 17.9827 11.6303 17.9827C11.6304 17.9827 11.6305 17.9827 11.6306 17.9827C11.6307 17.9826 11.6309 17.9826 11.6311 17.9825C11.6316 17.9824 11.6322 17.9822 11.6329 17.982C11.6343 17.9816 11.6362 17.9811 11.6386 17.9805C11.6433 17.9792 11.6501 17.9773 11.6587 17.9749C11.6759 17.97 11.7005 17.963 11.7318 17.9539C11.7943 17.9356 11.8835 17.9087 11.993 17.8736C12.2115 17.8034 12.5129 17.6996 12.8449 17.565C13.4897 17.3035 14.3236 16.897 14.8579 16.3491L14.1421 15.6509C13.7619 16.0407 13.0957 16.3842 12.4691 16.6383C12.1655 16.7614 11.8884 16.8569 11.6873 16.9214C11.5869 16.9536 11.5061 16.978 11.451 16.9941C11.4235 17.0022 11.4024 17.0082 11.3886 17.012C11.3817 17.014 11.3766 17.0154 11.3735 17.0162C11.3719 17.0167 11.3708 17.017 11.3702 17.0171C11.3699 17.0172 11.3697 17.0173 11.3696 17.0173C11.3696 17.0173 11.3696 17.0173 11.3696 17.0173C11.3697 17.0173 11.3697 17.0173 11.3697 17.0173C11.3698 17.0173 11.3698 17.0172 11.5 17.5ZM0.511505 12.9581C0.578254 13.8872 1.18807 14.6754 1.97908 15.3074C2.77967 15.9471 3.83919 16.4875 4.96737 16.9133C7.21205 17.7603 9.86731 18.2039 11.5608 17.9963L11.4392 17.0037C9.96091 17.1849 7.47556 16.791 5.32044 15.9777C4.24871 15.5732 3.29353 15.0777 2.60332 14.5262C1.90353 13.967 1.54646 13.4088 1.50893 12.8864L0.511505 12.9581ZM5.20374 4.29111C4.33238 5.24404 3.11508 6.61791 2.14128 8.12869C1.1783 9.62268 0.39509 11.3377 0.511505 12.9581L1.50893 12.8864C1.41679 11.604 2.04587 10.1225 2.9818 8.67046C3.9069 7.23524 5.07514 5.91364 5.94173 4.96592L5.20374 4.29111ZM6.15633 2.52502C6.16806 2.52891 6.17982 2.53328 6.19158 2.53816L6.57474 1.61448C6.54043 1.60024 6.50581 1.58736 6.47095 1.5758L6.15633 2.52502ZM6.13496 0.861899L5.83309 1.91231L6.79419 2.18851L7.09606 1.1381L6.13496 0.861899ZM16.5992 2.50993L6.71467 0.509931L6.51635 1.49007L16.4008 3.49007L16.5992 2.50993ZM16.7277 4.1509L16.9851 3.12127L16.0149 2.87873L15.7575 3.90836L16.7277 4.1509ZM16 4.5C16.0426 4.5 16.0833 4.50521 16.1217 4.51479L16.3635 3.54447C16.2466 3.51533 16.1247 3.5 16 3.5V4.5ZM9.78481 3.84898C11.2546 4.22555 13.1762 4.5 16 4.5V3.5C13.2427 3.5 11.4066 3.2322 10.033 2.88027L9.78481 3.84898ZM6.71023 2.75596C7.62127 3.1409 8.54222 3.53062 9.78481 3.84898L10.033 2.88027C8.86966 2.58221 8.00927 2.21924 7.09945 1.83481L6.71023 2.75596ZM6.70786 2.75495L6.70788 2.75496L7.1018 1.83581L7.10178 1.8358L6.70786 2.75495ZM6.71177 2.75661L6.71184 2.75664L7.09779 1.83412L7.09772 1.83409L6.71177 2.75661ZM6.19158 2.53816C6.36589 2.61047 6.5375 2.68298 6.71014 2.75592L7.09936 1.83477C6.92719 1.76203 6.75258 1.68825 6.57474 1.61448L6.19158 2.53816ZM11.3894 11.4601C10.9847 12.886 9.16851 13.7845 7.17873 13.2197L6.90567 14.1816C9.24084 14.8445 11.748 13.8589 12.3514 11.7332L11.3894 11.4601ZM8.73109 7.75074C10.7209 8.31555 11.7942 10.0342 11.3894 11.4601L12.3514 11.7332C12.9548 9.60738 11.3393 7.45159 9.00415 6.78875L8.73109 7.75074ZM4.5204 9.51031C4.92515 8.08439 6.7413 7.18594 8.73109 7.75074L9.00415 6.78875C6.66898 6.12591 4.1618 7.11148 3.5584 9.23724L4.5204 9.51031ZM7.17873 13.2197C5.18895 12.6548 4.11565 10.9362 4.5204 9.51031L3.5584 9.23724C2.955 11.363 4.5705 13.5188 6.90567 14.1816L7.17873 13.2197Z" fill="black"/>
</svg>
