<svg width="18" height="18" viewBox="0 0 18 18" fill="none" xmlns="http://www.w3.org/2000/svg">
<path d="M4.01001 16.7807C4.01001 16.0869 4.50414 15.8187 4.75121 15.7713C5.14081 15.7334 6.02835 15.8054 6.46166 16.3968C7.00331 17.1361 4.01001 17.1077 4.01001 16.7807Z" fill="#181815"/>
<path d="M13.5669 16.7807C13.5669 16.0869 13.0728 15.8187 12.8257 15.7713C12.4361 15.7334 11.5486 15.8054 11.1152 16.3968C10.5736 17.1361 13.5669 17.1077 13.5669 16.7807Z" fill="#181815"/>
<path d="M9.36967 1.29855L8.64273 1C7.88866 1.33677 7.6465 2.9754 7.61749 3.78344L7.80175 3.97132L8.99907 3.81493C9.22714 3.16665 9.74027 2.7771 9.96833 2.66337L9.52647 2.22265C8.88789 2.45012 8.49069 3.29365 8.37191 3.68698C8.45173 2.73161 9.07034 1.69662 9.36967 1.29855Z" fill="#181815"/>
<path d="M16.6961 14.2501C15.2023 14.1705 15.215 14.115 15.2626 13.9396C15.1058 14.2808 14.9347 14.532 14.7494 14.7784C14.279 15.404 14.0506 15.4991 14.0716 15.5012C14.656 15.558 16.3113 15.1457 15.6841 15.1457C15.0341 15.123 15.0332 15.0036 15.114 14.9467H15.3705C16.8387 14.9325 17.4373 14.2501 16.6961 14.2501Z" fill="#181815"/>
<path fill-rule="evenodd" clip-rule="evenodd" d="M14.5579 6.72928C11.5765 2.4527 5.74903 2.35048 2.74147 6.72927C-0.384417 11.2803 2.3871 14.4217 3.4684 15.3446C3.65301 15.5022 3.89863 15.6627 4.19372 15.8181C4.28205 15.7253 4.37734 15.6557 4.46778 15.6058C4.01967 15.1311 3.71819 14.5693 3.57955 13.932C3.56113 13.8474 3.60585 13.7617 3.68583 13.7283C3.83438 13.6664 4.17459 13.4549 4.5501 13.1897C4.79387 13.0175 5.04276 12.8296 5.25068 12.6573C4.37217 12.4916 3.48975 12.0562 3.11795 11.8334C3.05409 11.7951 3.02051 11.7214 3.03355 11.6481C3.21245 10.6432 3.59983 9.80573 4.08929 9.11843C4.07542 9.0845 4.06254 9.05006 4.05067 9.01516C3.95306 8.96111 3.93445 8.8292 3.93863 8.76252C3.47111 8.61466 3.40174 8.2365 3.42549 8.06589C3.58514 8.37298 3.78659 8.33601 3.86736 8.27915C3.54808 8.23365 3.54428 7.72943 3.58229 7.48301C3.66306 7.10389 3.8075 6.52479 3.73908 7.24132C3.68525 7.80514 3.91618 7.78974 4.1166 7.66059C4.40733 7.01927 5.05436 6.57302 5.8059 6.57302C6.18357 6.57302 6.53484 6.68572 6.82777 6.87922C7.17696 6.71909 7.49899 6.60786 7.7662 6.54122C7.82168 6.52738 7.88044 6.54083 7.92438 6.57742L8.62661 7.16209L9.32884 6.57742C9.37279 6.54083 9.43154 6.52738 9.48703 6.54122C9.75444 6.60791 10.0768 6.71926 10.4263 6.8796C10.7193 6.68586 11.0708 6.57302 11.4487 6.57302C12.2002 6.57302 12.8472 7.01922 13.138 7.66048C13.3383 7.78953 13.5691 7.80477 13.5153 7.2411C13.4469 6.52457 13.5913 7.10367 13.6721 7.48279C13.7101 7.72921 13.7063 8.23344 13.387 8.27893C13.4678 8.3358 13.6693 8.37276 13.8289 8.06568C13.8527 8.23628 13.7833 8.61445 13.3158 8.7623C13.3199 8.8289 13.3014 8.96057 13.2041 9.01475C13.192 9.05021 13.1789 9.0852 13.1648 9.11966C13.6539 9.80673 14.0409 10.6438 14.2197 11.6481C14.2327 11.7214 14.1991 11.7951 14.1353 11.8334C13.7635 12.0562 12.8811 12.4916 12.0026 12.6573C12.2019 12.8221 12.4366 12.9982 12.6707 13.1627C13.0315 13.4163 13.3784 13.6333 13.5786 13.7335C13.6501 13.7692 13.6893 13.8479 13.6748 13.9264C13.5987 14.3398 13.3698 14.9363 12.926 15.5148C13.063 15.5465 13.2584 15.6386 13.4284 15.8164C13.5359 15.7481 13.6416 15.6762 13.7454 15.6006C15.6102 14.2429 17.0951 10.3688 14.5579 6.72928ZM8.74361 7.53153C8.73206 7.54149 8.71947 7.54977 8.70619 7.55633C8.68104 7.5688 8.65375 7.57492 8.62658 7.5749C8.59942 7.57491 8.57216 7.56879 8.54704 7.55633C8.53376 7.54977 8.52116 7.54148 8.5096 7.53152L7.76582 6.91225C7.58061 6.96332 7.3674 7.0369 7.13655 7.135C7.45988 7.46769 7.6589 7.92127 7.6589 8.42121C7.6589 9.44194 6.82928 10.2694 5.8059 10.2694C5.17384 10.2694 4.61569 9.95376 4.28125 9.47189C3.88705 10.0621 3.57387 10.7632 3.40997 11.5878C3.87515 11.8476 4.83187 12.2831 5.67633 12.3547C5.74644 12.3606 5.80659 12.407 5.83018 12.4733C5.85377 12.5396 5.83644 12.6135 5.78585 12.6624C5.5339 12.906 5.1333 13.217 4.7571 13.4827C4.46179 13.6913 4.16709 13.8823 3.96286 13.9918C4.11337 14.5618 4.41862 15.0713 4.87277 15.502C5.3826 15.49 6.26809 15.6358 6.72492 16.3172C6.79051 16.415 6.81209 16.5024 6.79802 16.58C7.24345 16.723 7.73772 16.8325 8.27965 16.9049C8.72027 16.9383 9.17015 16.9472 9.62117 16.9261C10.0765 16.8709 10.4811 16.7671 10.8397 16.629C10.8043 16.5397 10.819 16.4362 10.8987 16.3172C11.2786 15.7506 11.9549 15.5544 12.4651 15.5112C12.9395 14.9749 13.1936 14.3992 13.2945 13.9886C13.072 13.8647 12.7686 13.67 12.4644 13.4563C12.0987 13.1993 11.7194 12.906 11.4674 12.6624C11.4168 12.6135 11.3995 12.5396 11.423 12.4733C11.4466 12.407 11.5068 12.3606 11.5769 12.3547C12.4214 12.2831 13.3781 11.8476 13.8433 11.5878C13.6794 10.7637 13.3665 10.0629 12.9726 9.4729C12.6381 9.9542 12.0803 10.2694 11.4487 10.2694C10.4253 10.2694 9.59571 9.44194 9.59571 8.42121C9.59571 7.92148 9.79457 7.46807 10.1177 7.13541C9.88643 7.03711 9.67288 6.96339 9.48741 6.91225L8.74361 7.53153ZM7.11567 11.5348C7.43632 11.6947 8.9035 11.1914 9.40145 11.0125C9.17983 11.2026 8.9105 11.3434 8.63002 11.4591C8.31797 11.5877 8.09021 11.6508 7.96132 11.6865L7.96131 11.6865C7.87497 11.7105 7.83299 11.7221 7.83975 11.7329C7.87345 11.7869 8.92053 11.9602 8.98484 11.8828C9.49032 11.3276 9.62667 11.0474 9.62729 10.9238C9.65932 10.9038 9.68821 10.8742 9.6671 10.8382C9.47705 10.5064 9.00858 9.79181 8.65508 9.58709C8.30159 9.38237 7.97565 9.63448 7.85687 9.78612C7.44826 10.2885 6.72797 11.3414 7.11567 11.5348ZM7.01575 6.14668C7.00625 5.99503 6.84471 5.68321 6.27456 5.64909L6.21754 5.84812C6.36958 5.81969 6.71928 5.86234 6.90172 6.26041L7.01575 6.14668ZM9.85226 6.14668C9.86176 5.99503 10.0233 5.68321 10.5935 5.64909L10.6505 5.84812C10.4984 5.81969 10.1487 5.86234 9.96629 6.26041L9.85226 6.14668Z" fill="#181815"/>
<path fill-rule="evenodd" clip-rule="evenodd" d="M5.80419 10.042C6.68587 10.042 7.40062 9.3291 7.40062 8.44971C7.40062 7.57031 6.68587 6.85742 5.80419 6.85742C4.92251 6.85742 4.20776 7.57031 4.20776 8.44971C4.20776 9.3291 4.92251 10.042 5.80419 10.042ZM5.88979 9.78602C6.61403 9.78602 7.20114 9.22589 7.20114 8.53494C7.20114 7.84398 6.61403 7.28385 5.88979 7.28385C5.16555 7.28385 4.57844 7.84398 4.57844 8.53494C4.57844 9.22589 5.16555 9.78602 5.88979 9.78602Z" fill="#181815"/>
<path fill-rule="evenodd" clip-rule="evenodd" d="M11.4773 10.042C10.5956 10.042 9.88088 9.3291 9.88088 8.44971C9.88088 7.57031 10.5956 6.85742 11.4773 6.85742C12.359 6.85742 13.0737 7.57031 13.0737 8.44971C13.0737 9.3291 12.359 10.042 11.4773 10.042ZM11.3917 9.78602C10.6674 9.78602 10.0803 9.22589 10.0803 8.53494C10.0803 7.84398 10.6674 7.28385 11.3917 7.28385C12.1159 7.28385 12.703 7.84398 12.703 8.53494C12.703 9.22589 12.1159 9.78602 11.3917 9.78602Z" fill="#181815"/>
<path fill-rule="evenodd" clip-rule="evenodd" d="M11.4857 9.42866C12.0459 9.42866 12.5 9.02572 12.5 8.52866C12.5 8.03161 12.0459 7.62866 11.4857 7.62866C11.3339 7.62866 11.1898 7.65827 11.0605 7.71134C11.1029 7.75718 11.1287 7.81848 11.1287 7.88583C11.1287 8.02785 11.0136 8.14297 10.8716 8.14297C10.7777 8.14297 10.6956 8.09269 10.6507 8.01758C10.5377 8.16275 10.4714 8.33884 10.4714 8.52866C10.4714 9.02572 10.9255 9.42866 11.4857 9.42866Z" fill="#181815"/>
<path fill-rule="evenodd" clip-rule="evenodd" d="M5.97131 9.42866C6.53148 9.42866 6.98559 9.02572 6.98559 8.52866C6.98559 8.03161 6.53148 7.62866 5.97131 7.62866C5.81942 7.62866 5.67533 7.65829 5.54598 7.71138C5.58833 7.75722 5.6142 7.8185 5.6142 7.88583C5.6142 8.02785 5.49908 8.14297 5.35706 8.14297C5.26324 8.14297 5.18116 8.09273 5.13625 8.01768C5.02323 8.16283 4.95703 8.33889 4.95703 8.52866C4.95703 9.02572 5.41114 9.42866 5.97131 9.42866Z" fill="#181815"/>
</svg>