<svg width="18" height="18" viewBox="0 0 18 18" fill="none" xmlns="http://www.w3.org/2000/svg">
<path d="M2.04181 8.06582C2.12928 8.23816 2.21676 8.49667 2.30423 8.669C3.00403 10.0477 4.75353 12.8051 4.75353 12.8051C4.75353 12.8051 5.05063 13.3448 5.27838 13.6668C5.48142 13.9538 5.4389 13.9717 5.64076 14.3694C5.84263 14.7671 5.89542 14.8803 6.04449 15.1648C6.15475 15.3752 6.23371 15.4937 6.41555 15.6487C6.984 16.1329 7.74508 16.101 8.33999 15.6487C9.23196 14.9704 7.6402 12.8913 7.6402 12.8913C8.16505 12.9774 8.86484 13.2359 9.56464 13.4083C9.56464 13.4083 10.6143 14.0115 12.5388 12.2881C12.5388 12.2881 13.8509 11.1679 13.0636 10.9094C12.2259 10.724 11.3792 10.5802 10.5269 10.4785C9.21474 10.3062 8.42747 10.22 8.42747 10.22C8.42747 10.22 12.4513 10.3062 13.4135 10.1339C14.3758 9.96153 15.6004 8.4105 15.8628 7.0318C15.8628 7.0318 16.3002 6.25628 14.9881 6.60096C13.7634 6.94563 8.51494 7.97965 8.51494 7.97965C8.51494 7.97965 15.338 5.91161 15.7754 5.3946C16.5734 4.15814 16.9981 2.72369 17 1.25851C17 1.08617 16.8251 1 16.6501 1H16.5626C16.5626 1 11.4891 3.24038 8.07757 4.53291C4.66605 5.82544 1.60443 6.42862 2.04181 8.06582Z" fill="black"/>
</svg>
