<svg width="22" height="22" viewBox="0 0 22 22" fill="none" xmlns="http://www.w3.org/2000/svg">
<g clip-path="url(#clip0_1089_5058)">
<path d="M19.2501 12.1385V18.3334H20.1667V20.1667H1.83342V18.3334H2.75008V12.1385C2.18576 11.7619 1.72315 11.2517 1.40333 10.6533C1.08351 10.0549 0.916374 9.38686 0.916749 8.70837C0.916749 7.95029 1.12208 7.21971 1.497 6.59729L3.983 2.29171C4.06345 2.15236 4.17917 2.03664 4.31851 1.95619C4.45786 1.87574 4.61593 1.83338 4.77683 1.83337H17.2242C17.3852 1.83338 17.5432 1.87574 17.6826 1.95619C17.8219 2.03664 17.9376 2.15236 18.0181 2.29171L20.4949 6.58354C21.0418 7.49184 21.2175 8.57595 20.9857 9.6105C20.7539 10.6451 20.1323 11.5505 19.2501 12.1385V12.1385ZM17.4167 12.8077C16.7865 12.8784 16.1484 12.8027 15.5522 12.5865C14.9559 12.3702 14.4177 12.0193 13.9792 11.561C13.5944 11.9635 13.1321 12.2839 12.62 12.5027C12.108 12.7215 11.5569 12.8343 11.0001 12.8343C10.4434 12.8346 9.89238 12.722 9.38036 12.5035C8.86833 12.285 8.40588 11.965 8.02092 11.5629C7.58241 12.021 7.04409 12.3717 6.44787 12.5878C5.85165 12.8039 5.21361 12.8794 4.58342 12.8086V18.3334H17.4167V12.8086V12.8077ZM5.30667 3.66671L3.07642 7.52862C2.85969 8.06409 2.85319 8.66165 3.0582 9.20171C3.26322 9.74176 3.66462 10.1845 4.18208 10.4412C4.69954 10.698 5.29488 10.7499 5.84895 10.5865C6.40301 10.423 6.87493 10.0564 7.17025 9.55996C7.47733 8.79271 8.56358 8.79271 8.87158 9.55996C9.04144 9.98567 9.33505 10.3507 9.71448 10.6078C10.0939 10.8649 10.5417 11.0024 11.0001 11.0024C11.4584 11.0024 11.9063 10.8649 12.2857 10.6078C12.6651 10.3507 12.9587 9.98567 13.1286 9.55996C13.4357 8.79271 14.5219 8.79271 14.8299 9.55996C14.9489 9.85279 15.1271 10.1178 15.3535 10.3385C15.5798 10.5591 15.8493 10.7305 16.1451 10.8419C16.4409 10.9534 16.7565 11.0024 17.0721 10.986C17.3878 10.9696 17.6966 10.888 17.9792 10.7465C18.2618 10.605 18.5121 10.4065 18.7143 10.1636C18.9165 9.9207 19.0663 9.63858 19.1543 9.33498C19.2422 9.03139 19.2664 8.71289 19.2253 8.39951C19.1842 8.08612 19.0787 7.78462 18.9155 7.51396L16.6926 3.66671H5.30758H5.30667Z" fill="#181815"/>
</g>
<defs>
<clipPath id="clip0_1089_5058">
<rect width="22" height="22" fill="white"/>
</clipPath>
</defs>
</svg>
