<svg width="18" height="18" viewBox="0 0 18 18" fill="none" xmlns="http://www.w3.org/2000/svg">
<g clip-path="url(#clip0_736_5584)">
<path d="M11.3896 9.82354C11.6945 9.78616 11.9876 9.74731 12.2688 9.70697C12.5133 9.67282 12.7636 9.63941 13.0199 9.60674C13.2762 9.57406 13.4904 9.54153 13.6625 9.50913L13.3088 10.3221C13.2087 10.5468 13.1217 10.7138 13.048 10.8232C12.894 11.0951 12.7219 11.3431 12.5318 11.5674C12.3416 11.7916 12.1643 11.9851 11.9999 12.1478C11.8078 12.3395 11.6118 12.5144 11.4119 12.6727L9.15676 12.9894L10.9123 13.4998C10.6533 13.6508 10.3758 13.8048 10.08 13.9619C9.82363 14.0916 9.53374 14.2252 9.21034 14.3627C8.88694 14.5002 8.55041 14.6225 8.20077 14.7298C7.85112 14.8371 7.472 14.8679 7.0634 14.8222C6.65481 14.7765 6.27055 14.7043 5.91063 14.6054C5.4916 14.4991 5.0772 14.3557 4.66745 14.1751C4.82006 14.0109 4.98716 13.8269 5.16872 13.6232C5.32266 13.4484 5.50752 13.2423 5.72329 13.0051C5.93906 12.7679 6.16735 12.5027 6.40815 12.2093C7.08315 11.4203 7.73842 10.645 8.37397 9.88342C9.00952 9.12184 9.58191 8.43324 10.0911 7.8176C10.6728 7.10319 11.2313 6.42903 11.7669 5.79512C11.1395 6.29896 10.474 6.86811 9.77024 7.50257C9.16255 8.04121 8.48148 8.68659 7.72702 9.4387C6.97257 10.1908 6.19668 11.0184 5.39935 11.9215C5.23226 12.1055 5.04345 12.3191 4.83293 12.5624C4.62241 12.8056 4.40102 13.0637 4.16879 13.3365C3.93655 13.6094 3.6974 13.8895 3.45135 14.1768C3.2053 14.4642 2.9632 14.7439 2.72505 15.016C2.16587 15.647 1.59088 16.3083 1.00009 17C1.03977 16.7785 1.12288 16.4978 1.24942 16.1578C1.35751 15.8694 1.52217 15.5126 1.74342 15.0874C1.96467 14.6623 2.26681 14.1663 2.64984 13.5996C2.8986 13.2425 3.08945 12.9645 3.2224 12.7655C3.35534 12.5664 3.45867 12.4122 3.53238 12.3028C3.60742 12.1828 3.66533 12.1038 3.70611 12.0658C3.65495 11.9947 3.65904 11.8658 3.71839 11.6792C3.76326 11.5122 3.86208 11.2739 4.01487 10.9642C4.16765 10.6544 4.4165 10.2246 4.76141 9.67465C5.10764 9.11413 5.54524 8.51919 6.0742 7.88985C6.60316 7.26051 7.18762 6.64349 7.82758 6.0388C8.46754 5.43411 9.15215 4.85656 9.8814 4.30615C10.6106 3.75575 11.3457 3.27884 12.0866 2.87545C12.8275 2.47205 13.5575 2.15624 14.2765 1.92801C14.9955 1.69978 15.6769 1.60432 16.3208 1.64163C16.2862 2.01467 16.1834 2.5005 16.0126 3.09911C15.8417 3.69772 15.6419 4.33584 15.4131 5.01347C15.1843 5.6911 14.9365 6.37713 14.6696 7.07156C14.4027 7.76599 14.15 8.39481 13.9115 8.95802L11.3896 9.82354Z" fill="black"/>
</g>
<defs>
<clipPath id="clip0_736_5584">
<rect width="16" height="16" fill="white" transform="translate(1 1)"/>
</clipPath>
</defs>
</svg>
