<svg width="64" height="62" viewBox="0 0 64 62" fill="none" xmlns="http://www.w3.org/2000/svg">
<path d="M48.9017 59.2939L34.2311 50.4817C32.8051 49.6251 31.0229 49.6251 29.5968 50.4817L14.9148 59.3008C13.7788 59.9831 12.3809 58.9651 12.6815 57.6746L16.5443 41.0945C16.9238 39.4658 16.3688 37.761 15.1032 36.6679L2.19322 25.517C1.18878 24.6495 1.72308 23.0008 3.04546 22.8874L20.1062 21.4232C21.764 21.281 23.2079 20.2356 23.8607 18.7051L30.5342 3.05837C31.0526 1.84301 32.7754 1.84301 33.2937 3.05838L39.9673 18.7051C40.62 20.2356 42.064 21.281 43.7217 21.4232L60.7735 22.8866C62.0965 23.0001 62.6304 24.6501 61.6247 25.5172L48.6943 36.6652C47.425 37.7596 46.869 39.4687 47.2515 41.1004L51.1345 57.6657C51.4371 58.9568 50.0385 59.9767 48.9017 59.2939Z" fill="white" stroke="#181815" stroke-width="3"/>
</svg>
