<svg width="22" height="22" viewBox="0 0 22 22" fill="none" xmlns="http://www.w3.org/2000/svg">
<path d="M13.7498 3.66675C12.7774 3.66675 11.8447 4.05306 11.1571 4.74069C10.4695 5.42832 10.0832 6.36095 10.0832 7.33341C10.0832 8.30588 10.4695 9.23851 11.1571 9.92614C11.8447 10.6138 12.7774 11.0001 13.7498 11.0001C14.7223 11.0001 15.6549 10.6138 16.3426 9.92614C17.0302 9.23851 17.4165 8.30588 17.4165 7.33341C17.4165 6.36095 17.0302 5.42832 16.3426 4.74069C15.6549 4.05306 14.7223 3.66675 13.7498 3.66675ZM3.6665 6.41675V9.16675H0.916504V11.0001H3.6665V13.7501H5.49984V11.0001H8.24984V9.16675H5.49984V6.41675H3.6665ZM13.7498 11.9167C11.3023 11.9167 6.4165 13.1359 6.4165 15.5834V18.3334H21.0832V15.5834C21.0832 13.1359 16.1973 11.9167 13.7498 11.9167Z" fill="#FFD203"/>
<path d="M13.7501 3.66675C12.7776 3.66675 11.845 4.05306 11.1574 4.74069C10.4697 5.42832 10.0834 6.36095 10.0834 7.33341C10.0834 8.30588 10.4697 9.23851 11.1574 9.92614C11.845 10.6138 12.7776 11.0001 13.7501 11.0001C14.7225 11.0001 15.6552 10.6138 16.3428 9.92614C17.0304 9.23851 17.4167 8.30588 17.4167 7.33341C17.4167 6.36095 17.0304 5.42832 16.3428 4.74069C15.6552 4.05306 14.7225 3.66675 13.7501 3.66675ZM13.7501 5.40841C14.8134 5.40841 15.6751 6.27008 15.6751 7.33341C15.6751 8.39675 14.8134 9.25842 13.7501 9.25842C13.2395 9.25842 12.7499 9.0556 12.3889 8.6946C12.0279 8.33359 11.8251 7.84396 11.8251 7.33341C11.8251 6.82287 12.0279 6.33324 12.3889 5.97223C12.7499 5.61123 13.2395 5.40841 13.7501 5.40841ZM3.66675 6.41675V9.16675H0.916748V11.0001H3.66675V13.7501H5.50008V11.0001H8.25008V9.16675H5.50008V6.41675H3.66675ZM13.7501 11.9167C11.3026 11.9167 6.41675 13.1359 6.41675 15.5834V18.3334H21.0834V15.5834C21.0834 13.1359 16.1976 11.9167 13.7501 11.9167ZM13.7501 13.6584C16.4726 13.6584 19.3417 14.9967 19.3417 15.5834V16.5917H8.15841V15.5834C8.15841 14.9967 11.0001 13.6584 13.7501 13.6584Z" fill="#181815"/>
</svg>
