<svg width="18" height="18" viewBox="0 0 18 18" fill="none" xmlns="http://www.w3.org/2000/svg">
<circle cx="9" cy="9" r="8.41304" fill="#181815" stroke="white" stroke-width="1.17391"/>
<path d="M14.2828 7.23931C13.6371 7.23931 13.1089 6.71105 13.1089 6.0654C13.1089 5.41975 14.2828 3.71757 14.2828 3.71757C14.2828 3.71757 15.4567 5.41975 15.4567 6.0654C15.4567 6.71105 14.9284 7.23931 14.2828 7.23931ZM12.2284 6.0654C12.2284 5.63692 12.4691 5.0617 12.7684 4.50409C11.7471 3.64714 10.4324 3.13062 9.00018 3.13062C5.75431 3.13062 3.13062 5.77192 3.13062 9.00018C3.13062 12.2284 5.75431 14.8697 9.00018 14.8697C12.2284 14.8697 14.8697 12.2284 14.8697 9.00018C14.8697 8.67735 14.8345 8.3604 14.7876 8.04931C14.6232 8.0904 14.4589 8.11975 14.2828 8.11975C13.15 8.11975 12.2284 7.19822 12.2284 6.0654ZM11.125 6.28844L11.7471 6.91061L11.125 7.53279L11.7471 8.15496L11.125 8.77714L9.88061 7.53279L11.125 6.28844ZM6.25322 6.91061L6.8754 6.28844L8.11975 7.53279L6.8754 8.77714L6.25322 8.15496L6.8754 7.53279L6.25322 6.91061ZM11.0193 11.935C10.6143 11.2365 9.86301 10.761 9.00018 10.761C8.13735 10.761 7.38605 11.2365 6.98105 11.935H5.99496C6.17105 11.4889 6.44105 11.0956 6.78148 10.761L5.03235 9.76322C4.76822 9.91583 4.43953 9.92757 4.15779 9.76322C3.73518 9.52257 3.59431 8.98257 3.83496 8.55996C4.07562 8.13735 4.61562 7.99648 5.03822 8.23714C5.31996 8.41322 5.47844 8.7067 5.47844 9.00018L7.57388 10.2093C8.00235 9.99801 8.48366 9.88061 9.00018 9.88061C10.3678 9.88061 11.5358 10.7317 12.0054 11.935H11.0193Z" fill="white"/>
</svg>
