<svg width="18" height="18" viewBox="0 0 18 18" fill="none" xmlns="http://www.w3.org/2000/svg">
<path d="M15.793 5.38561C15.7999 5.54401 15.7999 5.69521 15.7999 5.85362C15.8069 10.656 12.2785 16.2 5.82607 16.2C3.92298 16.2 2.05462 15.6312 0.450195 14.5656C0.728018 14.6016 1.00584 14.616 1.28366 14.616C2.86031 14.616 4.39528 14.0688 5.63854 13.0536C4.13829 13.0248 2.81864 12.0096 2.36023 10.5264C2.88809 10.6344 3.42985 10.6128 3.94382 10.4616C2.31161 10.1304 1.13781 8.64002 1.13086 6.90482C1.13086 6.89042 1.13086 6.87602 1.13086 6.86162C1.61705 7.14242 2.16575 7.30082 2.7214 7.31522C1.18643 6.24962 0.707182 4.12561 1.63789 2.4624C3.4229 4.73761 6.04833 6.11282 8.86823 6.26402C8.58346 5.00401 8.97241 3.67921 9.88228 2.78641C11.2922 1.4112 13.5148 1.4832 14.8484 2.94481C15.6332 2.78641 16.3903 2.484 17.0779 2.0592C16.814 2.90161 16.2653 3.61441 15.536 4.06801C16.2305 3.98161 16.9112 3.78721 17.5502 3.49921C17.0779 4.23361 16.4806 4.86721 15.793 5.38561Z" fill="#181815"/>
</svg>
