<svg width="44" height="30" viewBox="0 0 44 30" fill="none" xmlns="http://www.w3.org/2000/svg">
<path d="M2 13C0.895431 13 9.65645e-08 13.8954 0 15C-9.65645e-08 16.1046 0.89543 17 2 17L2 13ZM43.4142 16.4142C44.1953 15.6332 44.1953 14.3668 43.4142 13.5858L30.6863 0.857867C29.9052 0.0768182 28.6389 0.0768181 27.8579 0.857867C27.0768 1.63892 27.0768 2.90525 27.8579 3.68629L39.1716 15L27.8579 26.3137C27.0768 27.0948 27.0768 28.3611 27.8579 29.1421C28.6389 29.9232 29.9052 29.9232 30.6863 29.1421L43.4142 16.4142ZM2 17L42 17L42 13L2 13L2 17Z" fill="url(#paint0_linear_852_3706)"/>
<defs>
<linearGradient id="paint0_linear_852_3706" x1="42.452" y1="14.9997" x2="2" y2="14.9997" gradientUnits="userSpaceOnUse">
<stop stop-color="#FF9900"/>
<stop offset="1" stop-color="#FFD203"/>
</linearGradient>
</defs>
</svg>
