<svg width="18" height="18" viewBox="0 0 18 18" fill="none" xmlns="http://www.w3.org/2000/svg">
<path d="M12.7401 1.22729C10.697 1.22729 9.03883 2.92592 9.03883 5.01887C9.03883 7.11182 10.697 8.81044 12.7401 8.81044C14.7832 8.81044 16.4414 7.11182 16.4414 5.01887C16.4414 2.92592 14.7832 1.22729 12.7401 1.22729ZM12.7401 7.29381C11.5113 7.29381 10.5193 6.27767 10.5193 5.01887C10.5193 3.76007 11.5113 2.74392 12.7401 2.74392C13.969 2.74392 14.9609 3.76007 14.9609 5.01887C14.9609 6.27767 13.969 7.29381 12.7401 7.29381ZM14.9609 11.8437H13.4804C13.4804 10.9337 12.9252 10.1147 12.0961 9.79625L7.5361 8.05213H1.63623V16.3936H6.07779V15.3016L11.2596 16.7727L17.1817 14.877V14.1186C17.1817 12.8598 16.1897 11.8437 14.9609 11.8437ZM4.59727 14.877H3.11675V9.56876H4.59727V14.877Z" fill="black"/>
</svg>
