<svg width="18" height="18" viewBox="0 0 18 18" fill="none" xmlns="http://www.w3.org/2000/svg">
<path d="M17.9985 2.02292C17.9985 2.02292 10.8947 0.806973 5.68167 7.1447C1.68103 12.0074 0.000144192 16.5919 0.000144192 16.5919L1.5876 15.8896C2.86394 13.9481 3.51353 13.1568 4.70874 12.0459C6.66498 12.7817 9.84677 13.3535 11.8026 11.3371C10.2548 10.7757 7.89184 10.2929 6.01517 10.3582C8.20836 9.04017 10.7521 9.31626 12.7036 9.77569L13.6047 8.21424C12.2025 7.84143 10.1643 7.25115 8.73612 7.48542C10.369 6.46969 12.5866 6.41478 14.5058 6.65278L15.5687 5.15933C14.3432 4.98544 13.5916 5.07157 12.1538 5.32953C13.5063 4.23763 14.7038 3.78447 16.4006 3.79606C16.4006 3.79606 17.335 2.3262 17.9985 2.02292Z" fill="black"/>
</svg>
