<svg width="22" height="22" viewBox="0 0 22 22" fill="none" xmlns="http://www.w3.org/2000/svg">
<mask id="mask0_602_5852" style="mask-type:alpha" maskUnits="userSpaceOnUse" x="0" y="0" width="22" height="22">
<rect width="22" height="22" fill="#D9D9D9"/>
</mask>
<g mask="url(#mask0_602_5852)">
<path d="M15.7812 4.48901V3.55933C15.7812 3.06619 15.5854 2.59325 15.2367 2.24455C14.888 1.89585 14.415 1.69995 13.9219 1.69995H8.07812C7.58499 1.69995 7.11205 1.89585 6.76335 2.24455C6.41465 2.59325 6.21875 3.06619 6.21875 3.55933V4.48901C5.23248 4.48901 4.2866 4.88081 3.5892 5.57821C2.8918 6.27561 2.5 7.22149 2.5 8.20776V18.4343C2.5 18.9275 2.6959 19.4004 3.0446 19.7491C3.3933 20.0978 3.86624 20.2937 4.35938 20.2937H17.6406C18.1338 20.2937 18.6067 20.0978 18.9554 19.7491C19.3041 19.4004 19.5 18.9275 19.5 18.4343V8.20776C19.5 7.22149 19.1082 6.27561 18.4108 5.57821C17.7134 4.88081 16.7675 4.48901 15.7812 4.48901ZM8.07812 3.55933H13.9219V4.48901H8.07812V3.55933ZM11 8.20776L12.8594 10.0671L11 11.9265L9.14062 10.0671L11 8.20776ZM17.6406 18.4343H4.35938V14.7156H6.21875V16.575H7.14844V14.7156H17.6406V18.4343ZM17.6406 13.7859H4.35938V8.20776C4.35938 7.71463 4.55527 7.24169 4.90397 6.89299C5.25267 6.54429 5.72561 6.34839 6.21875 6.34839H15.7812C16.2744 6.34839 16.7473 6.54429 17.096 6.89299C17.4447 7.24169 17.6406 7.71463 17.6406 8.20776V13.7859Z" fill="#181815"/>
</g>
</svg>
