<svg width="48" height="48" viewBox="0 0 48 48" fill="none" xmlns="http://www.w3.org/2000/svg">
<mask id="mask0_602_5346" style="mask-type:alpha" maskUnits="userSpaceOnUse" x="0" y="0" width="48" height="48">
<rect width="48" height="48" fill="#D9D9D9"/>
</mask>
<g mask="url(#mask0_602_5346)">
<path d="M15.6188 34.9343C11.9159 34.8698 8.78386 32.2787 7.52852 28.6891C7.93029 28.7493 8.34072 28.7834 8.75275 28.7834C9.62043 28.7834 10.4682 28.6613 11.2734 28.4159L12.5053 28.0403L11.247 27.7655C7.35819 26.9162 4.35334 23.2149 4.14811 18.6836C5.30437 19.2586 6.59702 19.6305 7.98098 19.6305H9.03621L8.17564 19.0198C5.78415 17.3227 4.22267 14.3227 4.22267 10.9176C4.22267 9.33043 4.56978 7.81797 5.18822 6.49329C9.76242 12.4161 16.5036 16.3164 24.0624 16.7358L24.4985 16.7601L24.4105 16.3322C24.2647 15.624 24.1815 14.8702 24.1815 14.0941C24.1815 8.6722 28.1768 4.33636 32.9992 4.33636C35.5964 4.33636 37.8831 5.46526 39.5157 7.41589L39.6476 7.57341L39.8479 7.52807C41.6461 7.12114 43.3671 6.45465 44.9566 5.52803C44.5876 6.38065 44.0705 7.22541 43.5901 7.92207C43.2681 8.38905 42.967 8.78314 42.7466 9.06022C42.6365 9.19868 42.5467 9.30769 42.4848 9.38174C42.4538 9.41875 42.4298 9.44701 42.4138 9.46582L42.3957 9.48686L42.3913 9.49189L42.3904 9.49301L42.3902 9.49319L42.3902 9.49323L41.8533 10.1087L42.668 10.0498L42.6437 9.71429C42.668 10.0498 42.668 10.0498 42.6681 10.0498L42.6683 10.0497L42.6688 10.0497L42.6706 10.0496L42.6768 10.0491L42.7001 10.0473C42.7202 10.0456 42.7495 10.0431 42.7872 10.0397C42.8625 10.0328 42.9712 10.0221 43.1066 10.0067C43.3771 9.97594 43.7549 9.92617 44.1854 9.85015C44.7328 9.75349 45.3768 9.61253 45.9975 9.40962C44.8812 11.0595 43.5572 12.5089 42.053 13.6882L41.9162 13.7955L41.9245 13.9691C41.9455 14.4068 41.9456 14.8224 41.9456 15.2706C41.9456 28.4983 32.7486 43.6636 16.106 43.6636C13.5631 43.6636 10.426 42.9611 7.74184 42.0427C6.40227 41.5843 5.18466 41.0754 4.2192 40.5796C3.75753 40.3425 3.36269 40.1131 3.04249 39.8985C3.42377 39.9237 3.80509 39.9364 4.18644 39.9364C8.60253 39.9364 12.6461 38.304 15.834 35.5241L16.4929 34.9495L15.6188 34.9343Z" fill="#FFD203" stroke="#181815" stroke-width="0.672727"/>
</g>
</svg>
