<svg width="22" height="22" viewBox="0 0 22 22" fill="none" xmlns="http://www.w3.org/2000/svg">
<path d="M15.0714 1.5C12.5743 1.5 10.5476 3.5761 10.5476 6.13415C10.5476 8.69219 12.5743 10.7683 15.0714 10.7683C17.5686 10.7683 19.5952 8.69219 19.5952 6.13415C19.5952 3.5761 17.5686 1.5 15.0714 1.5ZM17.7857 14.4756H15.9762C15.9762 13.3634 15.2976 12.3624 14.2843 11.9732L8.71095 9.84146H1.5V20.0366H6.92857V18.702L13.2619 20.5L20.5 18.1829V17.2561C20.5 15.7176 19.2876 14.4756 17.7857 14.4756Z" fill="#FFD203"/>
<path d="M15.0714 1.5C12.5743 1.5 10.5476 3.5761 10.5476 6.13415C10.5476 8.69219 12.5743 10.7683 15.0714 10.7683C17.5686 10.7683 19.5952 8.69219 19.5952 6.13415C19.5952 3.5761 17.5686 1.5 15.0714 1.5ZM15.0714 8.91463C13.5695 8.91463 12.3571 7.67268 12.3571 6.13415C12.3571 4.59561 13.5695 3.35366 15.0714 3.35366C16.5733 3.35366 17.7857 4.59561 17.7857 6.13415C17.7857 7.67268 16.5733 8.91463 15.0714 8.91463ZM17.7857 14.4756H15.9762C15.9762 13.3634 15.2976 12.3624 14.2843 11.9732L8.71095 9.84146H1.5V20.0366H6.92857V18.702L13.2619 20.5L20.5 18.1829V17.2561C20.5 15.7176 19.2876 14.4756 17.7857 14.4756ZM5.11905 18.1829H3.30952V11.6951H5.11905V18.1829ZM13.2348 18.5629L6.92857 16.7927V11.6951H8.38524L13.651 13.7063C13.9586 13.8268 14.1667 14.1327 14.1667 14.4756C14.1667 14.4756 12.3571 14.4293 12.0857 14.3366L9.93238 13.6044L9.36238 15.3654L11.5157 16.0976C11.9771 16.2551 12.4567 16.3293 12.9452 16.3293H17.7857C18.1386 16.3293 18.4552 16.5517 18.6 16.8576L13.2348 18.5629Z" fill="#181815"/>
</svg>
