<svg width="22" height="22" viewBox="0 0 22 22" fill="none" xmlns="http://www.w3.org/2000/svg">
<path d="M13.75 3.66675C12.7776 3.66675 11.8449 4.05306 11.1573 4.74069C10.4697 5.42832 10.0834 6.36095 10.0834 7.33341C10.0834 8.30588 10.4697 9.23851 11.1573 9.92614C11.8449 10.6138 12.7776 11.0001 13.75 11.0001C14.7225 11.0001 15.6551 10.6138 16.3427 9.92614C17.0304 9.23851 17.4167 8.30588 17.4167 7.33341C17.4167 6.36095 17.0304 5.42832 16.3427 4.74069C15.6551 4.05306 14.7225 3.66675 13.75 3.66675ZM13.75 5.40841C14.8134 5.40841 15.675 6.27008 15.675 7.33341C15.675 8.39675 14.8134 9.25842 13.75 9.25842C13.2395 9.25842 12.7498 9.0556 12.3888 8.6946C12.0278 8.33359 11.825 7.84396 11.825 7.33341C11.825 6.82287 12.0278 6.33324 12.3888 5.97223C12.7498 5.61123 13.2395 5.40841 13.75 5.40841ZM3.66669 6.41675V9.16675H0.916687V11.0001H3.66669V13.7501H5.50002V11.0001H8.25002V9.16675H5.50002V6.41675H3.66669ZM13.75 11.9167C11.3025 11.9167 6.41669 13.1359 6.41669 15.5834V18.3334H21.0834V15.5834C21.0834 13.1359 16.1975 11.9167 13.75 11.9167ZM13.75 13.6584C16.4725 13.6584 19.3417 14.9967 19.3417 15.5834V16.5917H8.15835V15.5834C8.15835 14.9967 11 13.6584 13.75 13.6584Z" fill="#181815"/>
</svg>
