<svg width="18" height="18" viewBox="0 0 18 18" fill="none" xmlns="http://www.w3.org/2000/svg">
<path d="M16.8742 8.06792L14.5225 3.59142C14.4287 3.41301 14.2876 3.26357 14.1146 3.15931C13.9415 3.05505 13.743 2.99996 13.5407 3H4.46698C4.26385 2.99997 4.06462 3.05553 3.89109 3.16061C3.71755 3.2657 3.57639 3.41625 3.48305 3.5958L1.12355 8.13781C1.01856 8.33991 0.979072 8.56942 1.01051 8.79477C1.04195 9.02011 1.14278 9.23023 1.29912 9.39621L8.13192 16.6515C8.23528 16.7612 8.36011 16.8487 8.49872 16.9087C8.63733 16.9686 8.7868 16.9997 8.93793 17C9.08906 17.0003 9.23866 16.9699 9.37753 16.9105C9.5164 16.8512 9.6416 16.7642 9.74543 16.6549L16.6975 9.33423C16.8558 9.16772 16.9578 8.95622 16.9895 8.72921C17.0212 8.50221 16.9808 8.27103 16.8742 8.06792ZM13.2515 8.96007L9.80567 12.5027C9.69754 12.6147 9.56777 12.7037 9.42418 12.7644C9.28059 12.8251 9.12615 12.8563 8.97014 12.856H8.96809C8.81249 12.8566 8.65837 12.8259 8.51497 12.7658C8.37157 12.7056 8.24183 12.6173 8.13353 12.5062L4.65716 8.96189C4.54972 8.84517 4.49215 8.6914 4.49665 8.53316C4.50115 8.37493 4.56737 8.22465 4.68127 8.11416C4.79518 8.00368 4.94783 7.94166 5.10688 7.94124C5.26594 7.94083 5.41891 8.00205 5.53339 8.11195L8.96809 11.6138L12.3721 8.11376C12.4863 8.00447 12.6387 7.94352 12.7972 7.94375C12.9556 7.94398 13.1078 8.00536 13.2217 8.11498C13.3357 8.22461 13.4024 8.37393 13.408 8.53154C13.4135 8.68916 13.3575 8.84277 13.2515 8.96007Z" fill="#181815"/>
</svg>
