<svg width="18" height="18" viewBox="0 0 18 18" fill="none" xmlns="http://www.w3.org/2000/svg">
<path d="M15.4325 1.07996C15.746 1.07994 16.051 1.18227 16.3011 1.37141C16.5512 1.56055 16.7328 1.82615 16.8181 2.12787C16.9035 2.42958 16.8881 2.75092 16.7742 3.04306C16.6603 3.33521 16.4541 3.58218 16.187 3.74648L11.16 6.83996V15.404C11.1599 15.6554 11.0916 15.9021 10.9623 16.1178C10.8331 16.3335 10.6478 16.51 10.4261 16.6286C10.2044 16.7473 9.95468 16.8036 9.70354 16.7915C9.4524 16.7794 9.20925 16.6994 9 16.56L7.80192 15.7611C7.50609 15.5639 7.26352 15.2968 7.09572 14.9833C6.92792 14.6699 6.84008 14.3199 6.84 13.9644V6.83996L1.81296 3.74648C1.54588 3.58218 1.33973 3.33521 1.22582 3.04306C1.11191 2.75092 1.09647 2.42958 1.18185 2.12787C1.26723 1.82615 1.44876 1.56055 1.69885 1.37141C1.94895 1.18227 2.25395 1.07994 2.56752 1.07996H15.4325Z" fill="#181815"/>
<path d="M12.78 8.28003H16.02C16.38 8.28003 16.56 8.46003 16.56 8.82003C16.56 9.18003 16.38 9.36003 16.02 9.36003H12.78C12.42 9.36003 12.24 9.18003 12.24 8.82003C12.24 8.46003 12.42 8.28003 12.78 8.28003Z" fill="#181815"/>
<path d="M12.78 10.8H16.02C16.38 10.8 16.56 10.98 16.56 11.34C16.56 11.7 16.38 11.88 16.02 11.88H12.78C12.42 11.88 12.24 11.7 12.24 11.34C12.24 10.98 12.42 10.8 12.78 10.8Z" fill="#181815"/>
<path d="M12.78 13.3199H16.02C16.38 13.3199 16.56 13.4999 16.56 13.8599C16.56 14.2199 16.38 14.3999 16.02 14.3999H12.78C12.42 14.3999 12.24 14.2199 12.24 13.8599C12.24 13.4999 12.42 13.3199 12.78 13.3199Z" fill="#181815"/>
</svg>
