<svg width="18" height="18" viewBox="0 0 18 18" fill="none" xmlns="http://www.w3.org/2000/svg">
<path d="M15.7927 5.38561C15.7997 5.54401 15.7997 5.69521 15.7997 5.85362C15.8066 10.656 12.2783 16.2 5.82582 16.2C3.92274 16.2 2.05438 15.6312 0.449951 14.5656C0.727774 14.6016 1.0056 14.616 1.28342 14.616C2.86006 14.616 4.39504 14.0688 5.63829 13.0536C4.13805 13.0248 2.81839 12.0096 2.35998 10.5264C2.88785 10.6344 3.4296 10.6128 3.94357 10.4616C2.31136 10.1304 1.13756 8.64002 1.13062 6.90482C1.13062 6.89042 1.13062 6.87602 1.13062 6.86162C1.61681 7.14242 2.16551 7.30082 2.72115 7.31522C1.18618 6.24962 0.706937 4.12561 1.63764 2.4624C3.42266 4.73761 6.04808 6.11282 8.86798 6.26402C8.58322 5.00401 8.97217 3.67921 9.88204 2.78641C11.292 1.4112 13.5146 1.4832 14.8481 2.94481C15.633 2.78641 16.39 2.484 17.0777 2.0592C16.8137 2.90161 16.265 3.61441 15.5357 4.06801C16.2303 3.98161 16.911 3.78721 17.55 3.49921C17.0777 4.23361 16.4803 4.86721 15.7927 5.38561Z" fill="white"/>
</svg>
