<svg width="22" height="22" viewBox="0 0 22 22" fill="none" xmlns="http://www.w3.org/2000/svg">
<mask id="mask0_632_4166" style="mask-type:alpha" maskUnits="userSpaceOnUse" x="0" y="0" width="22" height="22">
<rect width="22" height="22" fill="#D9D9D9"/>
</mask>
<g mask="url(#mask0_632_4166)">
<path d="M20 19.3626C20 19.6278 19.8946 19.8821 19.7071 20.0697C19.5196 20.2572 19.2652 20.3626 19 20.3626H3C2.73478 20.3626 2.48043 20.2572 2.29289 20.0697C2.10536 19.8821 2 19.6278 2 19.3626V8.85258C1.99989 8.70019 2.03462 8.54979 2.10152 8.41288C2.16841 8.27596 2.26572 8.15614 2.386 8.06258L10.386 1.84058C10.5615 1.70402 10.7776 1.62988 11 1.62988C11.2224 1.62988 11.4385 1.70402 11.614 1.84058L19.614 8.06258C19.7343 8.15614 19.8316 8.27596 19.8985 8.41288C19.9654 8.54979 20.0001 8.70019 20 8.85258V19.3626Z" fill="#FFD203"/>
<path d="M12 18.3626H18V9.34058L11 3.89658L4 9.34058V18.3626H10V12.3626H12V18.3626ZM20 19.3626C20 19.6278 19.8946 19.8821 19.7071 20.0697C19.5196 20.2572 19.2652 20.3626 19 20.3626H3C2.73478 20.3626 2.48043 20.2572 2.29289 20.0697C2.10536 19.8821 2 19.6278 2 19.3626V8.85258C1.99989 8.70019 2.03462 8.54979 2.10152 8.41288C2.16841 8.27596 2.26572 8.15614 2.386 8.06258L10.386 1.84058C10.5615 1.70402 10.7776 1.62988 11 1.62988C11.2224 1.62988 11.4385 1.70402 11.614 1.84058L19.614 8.06258C19.7343 8.15614 19.8316 8.27596 19.8985 8.41288C19.9654 8.54979 20.0001 8.70019 20 8.85258V19.3626V19.3626Z" fill="#181815"/>
</g>
</svg>
