<svg width="92" height="32" viewBox="0 0 92 32" fill="none" xmlns="http://www.w3.org/2000/svg">
<path d="M46.6787 19.8711C46.6787 20.3574 46.5879 20.7764 46.4062 21.1279C46.2305 21.4795 45.9932 21.7783 45.6943 22.0244C45.3955 22.2705 45.0498 22.4727 44.6572 22.6309C44.2705 22.7832 43.8662 22.9033 43.4443 22.9912C43.0225 23.0791 42.5977 23.1377 42.1699 23.167C41.748 23.1963 41.3525 23.2109 40.9834 23.2109C40.6201 23.2109 40.2422 23.1963 39.8496 23.167C39.4629 23.1436 39.0762 23.0996 38.6895 23.0352C38.3027 22.9707 37.9219 22.8857 37.5469 22.7803C37.1719 22.6689 36.8174 22.5312 36.4834 22.3672L36.4658 11.0469C36.7939 10.9121 37.1426 10.792 37.5117 10.6865C37.8809 10.5752 38.2559 10.4844 38.6367 10.4141C39.0234 10.3379 39.4072 10.2822 39.7881 10.2471C40.1689 10.2061 40.5381 10.1855 40.8955 10.1855C41.3115 10.1855 41.7305 10.2119 42.1523 10.2646C42.5801 10.3174 42.9902 10.4053 43.3828 10.5283C43.7754 10.6514 44.1416 10.8125 44.4814 11.0117C44.8213 11.2051 45.1172 11.4453 45.3691 11.7324C45.627 12.0195 45.8262 12.3535 45.9668 12.7344C46.1133 13.1152 46.1865 13.5547 46.1865 14.0527C46.1865 14.3809 46.1396 14.6885 46.0459 14.9756C45.9521 15.2627 45.8174 15.5205 45.6416 15.749C45.4658 15.9775 45.252 16.1738 45 16.3379C44.748 16.4961 44.4639 16.6133 44.1475 16.6895C44.5283 16.7891 44.874 16.9355 45.1846 17.1289C45.501 17.3223 45.7676 17.5566 45.9844 17.832C46.207 18.1074 46.377 18.418 46.4941 18.7637C46.6172 19.1094 46.6787 19.4785 46.6787 19.8711ZM42.2139 14.8613C42.2139 14.6914 42.1787 14.5479 42.1084 14.4307C42.0381 14.3076 41.9502 14.208 41.8447 14.1318C41.7451 14.0557 41.6338 14 41.5107 13.9648C41.3936 13.9297 41.2881 13.9121 41.1943 13.9121C41.0771 13.9121 40.9629 13.9297 40.8516 13.9648C40.7402 14 40.6318 14.041 40.5264 14.0879L40.4736 16.0391C40.6084 16.0391 40.7754 16.0273 40.9746 16.0039C41.1738 15.9805 41.3643 15.9307 41.5459 15.8545C41.7334 15.7725 41.8916 15.6553 42.0205 15.5029C42.1494 15.3447 42.2139 15.1309 42.2139 14.8613ZM40.9658 17.7266C40.7959 17.7266 40.6318 17.7441 40.4736 17.7793L40.4385 19.7832C40.5264 19.8008 40.6113 19.8184 40.6934 19.8359C40.7812 19.8477 40.8662 19.8535 40.9482 19.8535C41.0713 19.8535 41.2061 19.8418 41.3525 19.8184C41.499 19.7891 41.6367 19.7363 41.7656 19.6602C41.8945 19.5781 42 19.4697 42.082 19.335C42.1699 19.2002 42.2139 19.0215 42.2139 18.7988C42.2139 18.5762 42.1699 18.3945 42.082 18.2539C42 18.1133 41.8975 18.0049 41.7744 17.9287C41.6514 17.8467 41.5166 17.7939 41.3701 17.7705C41.2236 17.7412 41.0889 17.7266 40.9658 17.7266ZM58.4114 11.0996L54.2805 17.8496L54.4036 22.8242H49.886L49.9915 17.8848L46.7747 11.3633L51.2571 10.8008L52.6634 14.5977L54.1927 10.8008L58.4114 11.0996ZM68.5005 10.6074L68.4127 14.334L65.7935 14.4395L65.4771 22.5957L61.7681 22.7891L61.4341 14.6328L58.815 14.7734L58.9205 10.625L68.5005 10.6074ZM79.3543 15.8984C79.3543 16.4082 79.3192 16.918 79.2489 17.4277C78.2469 17.4922 77.2508 17.5977 76.2606 17.7441C75.2704 17.8848 74.2801 18.0254 73.2899 18.166C73.4422 18.5879 73.6795 18.9248 74.0018 19.1768C74.3299 19.4287 74.7196 19.5547 75.1707 19.5547C75.4051 19.5547 75.66 19.5107 75.9354 19.4229C76.2166 19.335 76.495 19.2266 76.7704 19.0977C77.0457 18.9629 77.3094 18.8193 77.5614 18.667C77.8133 18.5146 78.0301 18.377 78.2118 18.2539L77.7899 22.2441C77.5614 22.4199 77.3123 22.5693 77.0428 22.6924C76.7791 22.8154 76.5037 22.915 76.2166 22.9912C75.9295 23.0674 75.6395 23.123 75.3465 23.1582C75.0536 23.1934 74.7664 23.2109 74.4852 23.2109C73.9051 23.2109 73.3748 23.1318 72.8944 22.9736C72.4139 22.8154 71.9774 22.5957 71.5848 22.3145C71.1981 22.0273 70.8582 21.6904 70.5653 21.3037C70.2723 20.917 70.0291 20.4951 69.8358 20.0381C69.6424 19.5811 69.4959 19.0977 69.3963 18.5879C69.2967 18.0781 69.2469 17.5625 69.2469 17.041C69.2469 16.4961 69.2967 15.9512 69.3963 15.4062C69.4959 14.8613 69.6454 14.3369 69.8446 13.833C70.0496 13.3291 70.3045 12.8633 70.6092 12.4355C70.9198 12.002 71.2801 11.624 71.6903 11.3018C72.1004 10.9795 72.5633 10.7275 73.0789 10.5459C73.6004 10.3643 74.1746 10.2734 74.8016 10.2734C75.3231 10.2734 75.7977 10.3467 76.2254 10.4932C76.659 10.6338 77.0428 10.833 77.3768 11.0908C77.7166 11.3428 78.0096 11.6445 78.2557 11.9961C78.5077 12.3477 78.7127 12.7344 78.8709 13.1562C79.035 13.5723 79.1551 14.0146 79.2313 14.4834C79.3133 14.9463 79.3543 15.418 79.3543 15.8984ZM75.8387 15.4414C75.8387 15.2773 75.8211 15.1104 75.786 14.9404C75.7508 14.7646 75.6922 14.6064 75.6102 14.4658C75.534 14.3252 75.4315 14.2109 75.3026 14.123C75.1737 14.0293 75.0125 13.9824 74.8192 13.9824C74.5848 13.9824 74.3768 14.0469 74.1952 14.1758C74.0194 14.2988 73.867 14.457 73.7381 14.6504C73.6092 14.8379 73.5037 15.043 73.4217 15.2656C73.3397 15.4883 73.2782 15.6934 73.2371 15.8809L75.8387 15.6348V15.4414ZM91.5616 18.5527C91.5616 19.2148 91.5529 19.8711 91.5353 20.5215C91.5236 21.166 91.503 21.8164 91.4738 22.4727L86.4113 22.3848C86.587 21.3477 86.7394 20.3135 86.8683 19.2822C86.9972 18.2451 87.0616 17.1992 87.0616 16.1445C87.0616 16.0684 87.0587 15.9453 87.0529 15.7754C87.047 15.6055 87.0353 15.415 87.0177 15.2041C87.0001 14.9873 86.9738 14.7676 86.9386 14.5449C86.9093 14.3164 86.8654 14.1084 86.8068 13.9209C86.754 13.7334 86.6866 13.5811 86.6046 13.4639C86.5284 13.3408 86.4347 13.2793 86.3234 13.2793C86.1241 13.2793 85.9542 13.3379 85.8136 13.4551C85.6788 13.5723 85.5646 13.7246 85.4708 13.9121C85.3829 14.0938 85.3126 14.2988 85.2599 14.5273C85.2071 14.7559 85.1661 14.9844 85.1368 15.2129C85.1134 15.4414 85.0958 15.6582 85.0841 15.8633C85.0782 16.0625 85.0753 16.2266 85.0753 16.3555C85.046 17.3926 85.0226 18.4238 85.005 19.4492C84.9874 20.4688 84.964 21.5 84.9347 22.543L80.4523 22.7363C80.5695 20.668 80.6808 18.6113 80.7863 16.5664C80.8976 14.5215 80.9855 12.4648 81.0499 10.3965L85.1984 10.1855L85.1632 11.5918C85.3273 11.3926 85.503 11.2051 85.6905 11.0293C85.8839 10.8535 86.089 10.7041 86.3058 10.5811C86.5226 10.4521 86.7511 10.3525 86.9913 10.2822C87.2374 10.2061 87.4952 10.168 87.7648 10.168C88.2628 10.168 88.6993 10.25 89.0743 10.4141C89.4493 10.5781 89.7716 10.8008 90.0411 11.082C90.3107 11.3633 90.5363 11.6973 90.7179 12.084C90.8995 12.4648 91.046 12.8721 91.1573 13.3057C91.2687 13.7393 91.3536 14.1934 91.4122 14.668C91.4708 15.1367 91.5089 15.5996 91.5265 16.0566C91.5499 16.5137 91.5616 16.9561 91.5616 17.3838C91.5616 17.8115 91.5616 18.2012 91.5616 18.5527Z" fill="white"/>
<mask id="mask0_652_6369" style="mask-type:alpha" maskUnits="userSpaceOnUse" x="0" y="0" width="32" height="32">
<rect width="32" height="32" fill="#D9D9D9"/>
</mask>
<g mask="url(#mask0_652_6369)">
<path d="M12.0838 2.70186C12.6567 2.42259 13.2523 2.20808 13.86 2.05834V5.63421L12.4576 6.62649C12.3968 6.61455 12.334 6.6083 12.2697 6.6083C11.7344 6.6083 11.3004 7.04226 11.3004 7.57758C11.3004 8.11291 11.7344 8.54687 12.2697 8.54687C12.805 8.54687 13.239 8.11291 13.239 7.57758C13.239 7.46761 13.2206 7.36192 13.1869 7.26338L14.8011 6.12123V1.8793C15.0814 1.84142 15.363 1.81688 15.645 1.80568V8.20267C15.3902 8.37731 15.223 8.67053 15.223 9.00279C15.223 9.53811 15.6569 9.97208 16.1923 9.97208C16.7276 9.97208 17.1615 9.53811 17.1615 9.00279C17.1615 8.60772 16.9252 8.26786 16.5862 8.11689V1.81785C16.8685 1.83637 17.1502 1.8683 17.4301 1.91363V6.12123L18.9106 7.1687C18.8527 7.29294 18.8204 7.43149 18.8204 7.57758C18.8204 8.11291 19.2543 8.54687 19.7897 8.54687C20.325 8.54687 20.7589 8.11291 20.7589 7.57758C20.7589 7.04226 20.325 6.6083 19.7897 6.6083C19.7761 6.6083 19.7626 6.60857 19.7492 6.60912L18.3713 5.63421V2.1186C18.9666 2.2823 19.5488 2.50882 20.108 2.79816V4.61672C19.8538 4.7841 19.686 5.07204 19.686 5.39917C19.686 5.91619 20.1051 6.33532 20.6221 6.33532C21.1392 6.33532 21.5583 5.91619 21.5583 5.39917C21.5583 5.03599 21.3515 4.72112 21.0492 4.56589V3.33055L25.0324 5.63025C27.7988 7.22744 29.503 10.1792 29.503 13.3735V18.641C29.503 21.8354 27.7988 24.7871 25.0324 26.3843L22.8344 27.6533V26.7625C23.1367 26.6073 23.3435 26.2924 23.3435 25.9292C23.3435 25.4122 22.9244 24.993 22.4074 24.993C21.8903 24.993 21.4712 25.4122 21.4712 25.9292C21.4712 26.2563 21.639 26.5443 21.8932 26.7116V28.1967L21.0493 28.6839V24.2025L22.3566 22.9693C22.4934 23.0431 22.65 23.085 22.8163 23.085C23.3517 23.085 23.7856 22.6511 23.7856 22.1157C23.7856 21.5804 23.3517 21.1465 22.8163 21.1465C22.281 21.1465 21.847 21.5804 21.847 22.1157C21.847 22.129 21.8473 22.1422 21.8478 22.1553L20.1082 23.7965V29.2163C19.549 29.5056 18.9668 29.7322 18.3715 29.8959V22.3652L20.1567 19.8548V14.4466C20.3801 14.269 20.5233 13.995 20.5233 13.6874C20.5233 13.1521 20.0894 12.7181 19.5541 12.7181C19.0187 12.7181 18.5848 13.1521 18.5848 13.6874C18.5848 14.1037 18.8472 14.4586 19.2156 14.596V19.5542L17.4303 22.0647V30.1009C17.1503 30.1462 16.8687 30.1781 16.5863 30.1967V20.6002C16.9253 20.4492 17.1617 20.1093 17.1617 19.7142C17.1617 19.1789 16.7277 18.745 16.1924 18.745C15.6571 18.745 15.2231 19.1789 15.2231 19.7142C15.2231 20.0568 15.4008 20.3578 15.6689 20.5302H15.6451L15.6451 30.2088C15.363 30.1976 15.0814 30.1731 14.8011 30.1352V22.0647L13.0159 19.5542V14.5395C13.3179 14.3754 13.5228 14.0553 13.5228 13.6874C13.5228 13.1521 13.0889 12.7181 12.5536 12.7181C12.0182 12.7181 11.5843 13.1521 11.5843 13.6874C11.5843 14.0486 11.7818 14.3636 12.0747 14.5304V19.8548L13.8599 22.3652V29.9562C13.2662 29.8099 12.6841 29.6017 12.1233 29.3318V23.8825L11.5403 22.7825C11.705 22.6088 11.8061 22.3741 11.8061 22.1157C11.8061 21.5804 11.3721 21.1465 10.8368 21.1465C10.3014 21.1465 9.86748 21.5804 9.86748 22.1157C9.86748 22.5776 10.1905 22.9639 10.6228 23.0613L11.1821 24.1165V28.8174L10.2986 28.3073V26.7815C10.6221 26.6341 10.847 26.3079 10.847 25.9292C10.847 25.4122 10.4279 24.993 9.91088 24.993C9.39386 24.993 8.97473 25.4122 8.97473 25.9292C8.97473 26.2391 9.12536 26.5139 9.35741 26.6843V27.7639L6.96773 26.3843C4.20132 24.7871 2.49714 21.8354 2.49714 18.641V13.3735C2.49714 10.1792 4.20132 7.22744 6.96773 5.63025L11.1426 3.21988V4.64409C10.9106 4.81446 10.7599 5.08923 10.7599 5.39917C10.7599 5.91619 11.1791 6.33532 11.6961 6.33532C12.2131 6.33532 12.6322 5.91619 12.6322 5.39917C12.6322 5.02044 12.4073 4.69424 12.0838 4.54684V2.70186Z" fill="white"/>
<path d="M16.2187 19.7249C16.2196 19.7228 16.2205 19.7199 16.2205 19.7142C16.2205 19.7086 16.2196 19.7056 16.2187 19.7036L16.2175 19.7011L16.2156 19.6982L16.2135 19.6956L16.2123 19.6944L16.2093 19.6917C16.2071 19.69 16.2049 19.6887 16.2031 19.688C16.201 19.6871 16.198 19.6861 16.1924 19.6861C16.1868 19.6861 16.1838 19.6871 16.1817 19.688C16.1791 19.6891 16.1758 19.6911 16.1725 19.6944L16.1699 19.6973C16.1681 19.6995 16.1669 19.7017 16.1661 19.7036C16.1652 19.7056 16.1643 19.7086 16.1643 19.7142C16.1643 19.7199 16.1652 19.7228 16.1661 19.7249L16.1674 19.7275L16.1693 19.7304C16.1702 19.7317 16.1713 19.7329 16.1725 19.7341C16.1758 19.7374 16.1791 19.7394 16.1817 19.7405C16.1838 19.7414 16.1868 19.7424 16.1924 19.7424C16.1951 19.7424 16.1972 19.7421 16.1989 19.7418C16.2007 19.7414 16.202 19.741 16.2031 19.7405C16.2057 19.7394 16.2091 19.7374 16.2123 19.7341C16.2133 19.7331 16.2143 19.732 16.2151 19.7309C16.2162 19.7295 16.217 19.7282 16.2177 19.7269L16.2187 19.7249Z" fill="white"/>
<path d="M22.8444 22.1157C22.8444 22.1214 22.8435 22.1243 22.8426 22.1264C22.8415 22.1291 22.8394 22.1324 22.8362 22.1356C22.833 22.1388 22.8297 22.1409 22.827 22.142L22.8241 22.143C22.823 22.1433 22.8218 22.1435 22.8204 22.1437L22.8163 22.1439C22.8107 22.1439 22.8077 22.1429 22.8057 22.142C22.803 22.1409 22.7997 22.1388 22.7965 22.1356C22.7932 22.1324 22.7912 22.1291 22.79 22.1264C22.7896 22.1253 22.7891 22.1239 22.7887 22.122C22.7884 22.1203 22.7882 22.1183 22.7882 22.1157C22.7882 22.1101 22.7892 22.1071 22.79 22.1051L22.7913 22.1026L22.7921 22.1012L22.7935 22.0992L22.7952 22.0971L22.7965 22.0959C22.7997 22.0926 22.803 22.0906 22.8057 22.0895C22.8077 22.0886 22.8107 22.0876 22.8163 22.0876C22.822 22.0876 22.8249 22.0886 22.827 22.0895C22.8297 22.0906 22.833 22.0926 22.8362 22.0959C22.8382 22.0978 22.8397 22.0998 22.8408 22.1016L22.8419 22.1035L22.8426 22.1051C22.8432 22.1064 22.8438 22.1081 22.8441 22.1106L22.8444 22.1136L22.8444 22.1157Z" fill="white"/>
<path d="M10.8631 22.1264C10.8639 22.1243 10.8649 22.1214 10.8649 22.1157C10.8649 22.1101 10.8639 22.1071 10.8631 22.1051C10.8619 22.1024 10.8599 22.0991 10.8566 22.0959C10.8534 22.0926 10.8501 22.0906 10.8474 22.0895C10.8454 22.0886 10.8424 22.0876 10.8368 22.0876C10.8312 22.0876 10.8282 22.0886 10.8261 22.0895C10.8234 22.0906 10.8201 22.0926 10.8169 22.0959C10.8137 22.0991 10.8116 22.1024 10.8105 22.1051C10.8096 22.1071 10.8087 22.1101 10.8087 22.1157C10.8087 22.1214 10.8096 22.1243 10.8105 22.1264C10.8116 22.1291 10.8137 22.1324 10.8169 22.1356C10.8201 22.1388 10.8234 22.1409 10.8261 22.142C10.8282 22.1429 10.8312 22.1439 10.8368 22.1439C10.8424 22.1439 10.8454 22.1429 10.8474 22.142C10.8501 22.1409 10.8534 22.1388 10.8566 22.1356C10.8599 22.1324 10.8619 22.1291 10.8631 22.1264Z" fill="white"/>
<path d="M19.5822 13.6874C19.5822 13.693 19.5812 13.696 19.5803 13.6981C19.5792 13.7008 19.5772 13.7041 19.5739 13.7073C19.5707 13.7105 19.5674 13.7126 19.5647 13.7137C19.5627 13.7146 19.5597 13.7155 19.5541 13.7155C19.5517 13.7155 19.5498 13.7154 19.5483 13.7151C19.5461 13.7147 19.5446 13.7142 19.5434 13.7137C19.5407 13.7126 19.5374 13.7105 19.5342 13.7073C19.5326 13.7057 19.5313 13.7041 19.5303 13.7026C19.5292 13.701 19.5284 13.6995 19.5278 13.6981C19.5269 13.696 19.5259 13.693 19.5259 13.6874C19.5259 13.6837 19.5264 13.6812 19.5269 13.6793L19.5278 13.6768C19.5289 13.6741 19.531 13.6708 19.5342 13.6675C19.5374 13.6643 19.5407 13.6623 19.5434 13.6611C19.5455 13.6603 19.5484 13.6593 19.5541 13.6593C19.5597 13.6593 19.5627 13.6603 19.5647 13.6611C19.5674 13.6623 19.5707 13.6643 19.5739 13.6675C19.5772 13.6708 19.5792 13.6741 19.5803 13.6768C19.5812 13.6788 19.5822 13.6818 19.5822 13.6874Z" fill="white"/>
<path d="M12.5798 13.6981C12.5807 13.696 12.5817 13.693 12.5817 13.6874C12.5817 13.6818 12.5807 13.6788 12.5798 13.6768C12.5787 13.6741 12.5767 13.6708 12.5734 13.6675C12.5702 13.6643 12.5669 13.6623 12.5642 13.6611C12.5622 13.6603 12.5592 13.6593 12.5536 13.6593C12.5479 13.6593 12.545 13.6603 12.5429 13.6611C12.5402 13.6623 12.5369 13.6643 12.5337 13.6675C12.5304 13.6708 12.5284 13.6741 12.5273 13.6768C12.5264 13.6788 12.5254 13.6818 12.5254 13.6874C12.5254 13.693 12.5264 13.696 12.5273 13.6981C12.5284 13.7008 12.5304 13.7041 12.5337 13.7073C12.5369 13.7105 12.5402 13.7126 12.5429 13.7137C12.545 13.7146 12.5479 13.7155 12.5536 13.7155C12.5592 13.7155 12.5622 13.7146 12.5642 13.7137C12.5669 13.7126 12.5702 13.7105 12.5734 13.7073C12.5767 13.7041 12.5787 13.7008 12.5798 13.6981Z" fill="white"/>
<path d="M16.2185 8.99214C16.2194 8.99419 16.2204 8.99717 16.2204 9.00279C16.2204 9.00841 16.2194 9.01139 16.2185 9.01344C16.2174 9.01613 16.2154 9.01944 16.2121 9.02267C16.2089 9.0259 16.2056 9.02794 16.2029 9.02908C16.2009 9.02995 16.1979 9.0309 16.1923 9.0309C16.1866 9.0309 16.1837 9.02995 16.1816 9.02908C16.1789 9.02794 16.1756 9.0259 16.1724 9.02267C16.1692 9.01944 16.1671 9.01613 16.166 9.01344C16.1651 9.01139 16.1641 9.00841 16.1641 9.00279C16.1641 8.99717 16.1651 8.99419 16.166 8.99214C16.1671 8.98946 16.1692 8.98614 16.1724 8.98291C16.1756 8.97969 16.1789 8.97764 16.1816 8.9765C16.1837 8.97563 16.1866 8.97468 16.1923 8.97468C16.1979 8.97468 16.2009 8.97563 16.2029 8.9765C16.2056 8.97764 16.2089 8.97969 16.2121 8.98291C16.2142 8.98494 16.2157 8.98701 16.2169 8.98893L16.2185 8.99214Z" fill="white"/>
<path d="M19.8178 7.57758C19.8178 7.57197 19.8168 7.56898 19.8159 7.56693C19.8148 7.56425 19.8128 7.56093 19.8095 7.55771C19.8063 7.55448 19.803 7.55243 19.8003 7.55129C19.7983 7.55043 19.7953 7.54947 19.7897 7.54947C19.784 7.54947 19.7811 7.55043 19.779 7.55129C19.7763 7.55243 19.773 7.55448 19.7698 7.55771C19.7665 7.56093 19.7645 7.56425 19.7634 7.56693C19.7625 7.56898 19.7615 7.57197 19.7615 7.57758C19.7615 7.58088 19.7619 7.58327 19.7623 7.5851C19.7626 7.58638 19.763 7.58739 19.7634 7.58824C19.7645 7.59092 19.7665 7.59423 19.7698 7.59746C19.773 7.60069 19.7763 7.60274 19.779 7.60387C19.7811 7.60474 19.784 7.60569 19.7897 7.60569C19.7953 7.60569 19.7983 7.60474 19.8003 7.60387C19.803 7.60274 19.8063 7.60069 19.8095 7.59746C19.8128 7.59423 19.8148 7.59092 19.8159 7.58824C19.8168 7.58618 19.8178 7.5832 19.8178 7.57758Z" fill="white"/>
<path d="M12.2978 7.57758C12.2978 7.57197 12.2968 7.56899 12.296 7.56693C12.2948 7.56425 12.2928 7.56093 12.2896 7.55771C12.2863 7.55448 12.283 7.55243 12.2803 7.5513C12.2783 7.55043 12.2753 7.54947 12.2697 7.54947C12.2641 7.54947 12.2611 7.55043 12.259 7.5513C12.2563 7.55243 12.253 7.55448 12.2498 7.55771C12.2466 7.56093 12.2445 7.56425 12.2434 7.56693C12.2425 7.56899 12.2416 7.57197 12.2416 7.57758C12.2416 7.5832 12.2425 7.58618 12.2434 7.58824C12.2445 7.59092 12.2466 7.59423 12.2498 7.59746C12.253 7.60069 12.2563 7.60274 12.259 7.60387C12.2611 7.60474 12.2641 7.6057 12.2697 7.6057C12.2753 7.6057 12.2783 7.60474 12.2803 7.60387C12.283 7.60274 12.2863 7.60069 12.2896 7.59746C12.2928 7.59423 12.2948 7.59092 12.296 7.58824C12.2968 7.58618 12.2978 7.5832 12.2978 7.57758Z" fill="white"/>
<path d="M20.6172 5.39917L20.6179 5.39693C20.6184 5.39564 20.6188 5.39539 20.6186 5.39561C20.6184 5.39584 20.6186 5.39547 20.6199 5.39492L20.6221 5.39423L20.6244 5.39492L20.6257 5.39561C20.6258 5.3957 20.6258 5.3957 20.6257 5.39561C20.6255 5.39538 20.6259 5.39564 20.6264 5.39693L20.6271 5.39916L20.6264 5.40142C20.6259 5.4027 20.6255 5.40296 20.6257 5.40273L20.6244 5.40342L20.6222 5.40412L20.6199 5.40342L20.6186 5.40273L20.6179 5.40142L20.6172 5.39917Z" fill="white"/>
<path d="M22.4024 25.9292L22.4031 25.9269L22.4038 25.9256L22.4051 25.9249L22.4073 25.9242L22.4096 25.9249C22.4109 25.9255 22.4111 25.9259 22.4109 25.9256L22.4116 25.9269L22.4123 25.9292L22.4116 25.9314L22.411 25.9327C22.4109 25.9327 22.411 25.9326 22.411 25.9327L22.4096 25.9334L22.4074 25.9341L22.4051 25.9334C22.4038 25.9329 22.4036 25.9325 22.4038 25.9328C22.404 25.933 22.4036 25.9327 22.4031 25.9314L22.4024 25.9292Z" fill="white"/>
<path d="M11.6911 5.39917L11.6918 5.39693C11.6924 5.39564 11.6928 5.39539 11.6925 5.39561C11.6923 5.39584 11.6926 5.39547 11.6938 5.39492L11.6961 5.39423L11.6983 5.39492C11.6996 5.39547 11.6999 5.39584 11.6996 5.39561C11.6994 5.39539 11.6998 5.39564 11.7003 5.39693L11.701 5.39916L11.7003 5.40142C11.6998 5.4027 11.6994 5.40296 11.6996 5.40273C11.6999 5.4025 11.6996 5.40288 11.6983 5.40342L11.6961 5.40412L11.6938 5.40342L11.6925 5.40273L11.6918 5.40142L11.6911 5.39917Z" fill="white"/>
<path d="M9.90593 25.9292L9.90663 25.9269L9.90732 25.9256L9.90863 25.9249L9.91086 25.9242L9.91312 25.9249C9.91368 25.9252 9.91404 25.9254 9.91426 25.9255C9.91439 25.9256 9.91454 25.9257 9.91426 25.9255C9.91403 25.9253 9.91458 25.9257 9.91513 25.9269L9.91582 25.9292L9.91513 25.9314C9.91458 25.9327 9.91421 25.933 9.91443 25.9328C9.91466 25.9325 9.91441 25.9329 9.91312 25.9334L9.91089 25.9341L9.90863 25.9334C9.90734 25.9329 9.90709 25.9325 9.90732 25.9328C9.90745 25.9329 9.9075 25.933 9.90732 25.9328C9.90718 25.9325 9.90686 25.932 9.90663 25.9314L9.90593 25.9292Z" fill="white"/>
<path fill-rule="evenodd" clip-rule="evenodd" d="M20.7061 1.33638C17.7941 -0.344872 14.2064 -0.344874 11.2944 1.33638L5.64729 4.59671C2.73528 6.27796 0.941406 9.38503 0.941406 12.7475V19.2682C0.941406 22.6307 2.73528 25.7378 5.64729 27.419L11.2943 30.6794C14.2064 32.3606 17.7941 32.3606 20.7061 30.6794L26.3532 27.419C29.2652 25.7378 31.0591 22.6307 31.0591 19.2682V12.7475C31.0591 9.38504 29.2652 6.27796 26.3532 4.59671L20.7061 1.33638ZM20.9412 2.18145C17.8836 0.416136 14.1165 0.416134 11.0589 2.18145L6.49714 4.81517C3.43953 6.58048 1.55597 9.84291 1.55597 13.3735V18.641C1.55597 22.1716 3.43953 25.434 6.49714 27.1993L11.0589 29.8331C14.1165 31.5984 17.8836 31.5984 20.9412 29.8331L25.503 27.1994C28.5606 25.434 30.4442 22.1716 30.4442 18.641V13.3735C30.4442 9.84291 28.5606 6.58048 25.503 4.81517L20.9412 2.18145Z" fill="white"/>
</g>
</svg>
