<svg width="100" height="100" viewBox="0 0 100 100" fill="none" xmlns="http://www.w3.org/2000/svg">
<g clip-path="url(#clip0_3598_16306)">
<path d="M50 99.8066C77.6142 99.8066 100 77.5074 100 50C100 22.4926 77.6142 0.19342 50 0.19342C22.3858 0.19342 0 22.4926 0 50C0 77.5074 22.3858 99.8066 50 99.8066Z" fill="white"/>
<path d="M77.4608 33.4579H68.6086C68.1012 33.4564 67.6 33.3474 67.1381 33.1381C66.6763 32.9288 66.2645 32.624 65.9301 32.2439L62.341 28.2418C62.0747 27.9474 61.7494 27.7121 61.3861 27.551C61.0227 27.3899 60.6294 27.3067 60.2317 27.3067C59.834 27.3067 59.4407 27.3899 59.0773 27.551C58.714 27.7121 58.3886 27.9474 58.1224 28.2418L55.0422 31.7103C54.5377 32.2746 53.9187 32.7258 53.2261 33.034C52.5335 33.3422 51.7831 33.5003 51.0245 33.4979H2.67845C1.26245 37.481 0.362365 41.6278 0 45.8378H45.7078C46.1057 45.837 46.4994 45.7562 46.8652 45.6003C47.2311 45.4445 47.5617 45.2167 47.8372 44.9307L52.0959 40.5016C52.3612 40.2317 52.6779 40.0171 53.0274 39.8705C53.3769 39.7239 53.7523 39.6482 54.1315 39.6478H54.3056C54.7041 39.6443 55.0986 39.7271 55.4617 39.8907C55.8247 40.0543 56.1477 40.2946 56.4082 40.595L59.9973 44.5972C60.3329 44.9759 60.7449 45.2798 61.2064 45.489C61.668 45.6982 62.1687 45.808 62.6758 45.8111H100C99.6442 41.6001 98.744 37.4525 97.3215 33.4712H77.4608V33.4579Z" fill="black"/>
<path d="M27.6551 71.7449C28.0535 71.7472 28.4481 71.6678 28.8144 71.5118C29.1807 71.3557 29.5109 71.1263 29.7845 70.8378L34.0432 66.4221C34.306 66.1479 34.6219 65.9297 34.9718 65.7806C35.3217 65.6316 35.6983 65.5548 36.0788 65.555H36.2529C36.6527 65.5556 37.0478 65.6402 37.4125 65.8035C37.7771 65.9667 38.103 66.2048 38.3689 66.5021L41.958 70.5043C42.2953 70.8799 42.708 71.1809 43.1694 71.3877C43.6308 71.5945 44.1306 71.7026 44.6365 71.7049H95.2057C97.1251 67.7517 98.5078 63.5616 99.3171 59.2449H50.7836C50.2762 59.2435 49.775 59.1344 49.3132 58.9251C48.8513 58.7158 48.4395 58.411 48.1051 58.031L44.516 54.0288C44.2521 53.7307 43.9275 53.492 43.5638 53.3285C43.2001 53.1649 42.8057 53.0804 42.4067 53.0804C42.0077 53.0804 41.6132 53.1649 41.2496 53.3285C40.8859 53.492 40.5613 53.7307 40.2974 54.0288L37.2172 57.484C36.7127 58.0484 36.0937 58.4995 35.4011 58.8077C34.7085 59.1159 33.9581 59.274 33.1995 59.2716H0.683105C1.49871 63.5867 2.88106 67.776 4.79453 71.7316L27.6551 71.7449Z" fill="black"/>
<path d="M63.5329 20.0108C63.9266 19.9979 64.3139 19.9077 64.6725 19.7451C65.0311 19.5825 65.3538 19.3509 65.6221 19.0636L69.921 14.6746C70.1844 14.4022 70.5008 14.186 70.8507 14.0392C71.2007 13.8924 71.5769 13.8181 71.9566 13.8208H72.1307C72.5276 13.819 72.9204 13.9014 73.2829 14.0624C73.6454 14.2234 73.9694 14.4594 74.2333 14.7546L77.8224 18.7568C78.1569 19.1368 78.5687 19.4416 79.0305 19.6509C79.4923 19.8602 79.9935 19.9693 80.5009 19.9707H90.1299C85.4504 13.7729 79.3877 8.74433 72.4212 5.28253C65.4547 1.82074 57.7752 0.0206298 49.99 0.0245119C42.2048 0.028394 34.5271 1.83616 27.5641 5.3049C20.601 8.77364 14.5434 13.8083 9.87012 20.0108H63.5329Z" fill="black"/>
<path d="M44.1946 84.0448H31.0702C30.5642 84.0425 30.0644 83.9344 29.603 83.7276C29.1417 83.5208 28.729 83.2198 28.3917 82.8442L24.8026 78.842C24.5387 78.5439 24.2141 78.3052 23.8504 78.1417C23.4867 77.9781 23.0923 77.8936 22.6933 77.8936C22.2943 77.8936 21.8998 77.9781 21.5362 78.1417C21.1725 78.3052 20.8479 78.5439 20.584 78.842L17.5038 82.3106C16.9981 82.8725 16.3786 83.3212 15.686 83.627C14.9935 83.9328 14.2437 84.0889 13.4861 84.0848H13.312C18.004 89.1021 23.6828 93.1032 29.9948 95.839C36.3067 98.5748 43.1165 99.9867 50.0001 99.9867C56.8837 99.9867 63.6935 98.5748 70.0055 95.839C76.3174 93.1032 81.9962 89.1021 86.6882 84.0848L44.1946 84.0448Z" fill="black"/>
</g>
<defs>
<clipPath id="clip0_3598_16306">
<rect width="100" height="100" fill="white"/>
</clipPath>
</defs>
</svg>
