<svg width="260" height="260" viewBox="0 0 260 260" fill="none" xmlns="http://www.w3.org/2000/svg">
<circle cx="130" cy="130" r="127" fill="white" stroke="#083968" stroke-width="5"/>
<path d="M235.5 130C235.5 188.266 188.266 235.5 130 235.5C71.734 235.5 24.5 188.266 24.5 130C24.5 71.734 71.734 24.5 130 24.5C188.266 24.5 235.5 71.734 235.5 130Z" fill="#52B5E0" stroke="#083968" stroke-width="5"/>
<path d="M134.496 63.9922L138.365 66.2077V84.3105L143.616 89.6326C143.062 90.3599 142.733 91.2657 142.733 92.2476C142.733 94.645 144.692 96.5885 147.11 96.5885C149.527 96.5885 151.487 94.645 151.487 92.2476C151.487 89.8502 149.527 87.9068 147.11 87.9068C146.382 87.9068 145.695 88.0831 145.091 88.3951L140.292 83.5311V67.311L148.843 72.2073V78.6531C148.099 79.0654 147.596 79.8543 147.596 80.7597C147.596 82.0916 148.685 83.1713 150.028 83.1713C151.371 83.1713 152.459 82.0916 152.459 80.7597C152.459 79.6846 151.75 78.7738 150.77 78.4626V73.3106L185.391 93.1345C188.174 94.7275 189.887 97.6716 189.887 100.858V159.142C189.887 162.328 188.174 165.272 185.391 166.865L157.844 182.639V172.668C158.636 172.271 159.179 171.456 159.179 170.515C159.179 169.183 158.091 168.103 156.748 168.103C155.405 168.103 154.316 169.183 154.316 170.515C154.316 171.557 154.983 172.445 155.917 172.782V183.742L150.572 186.803V170.327L155.364 165.47C155.799 165.614 156.264 165.692 156.748 165.692C159.165 165.692 161.125 163.748 161.125 161.351C161.125 158.953 159.165 157.01 156.748 157.01C154.33 157.01 152.371 158.953 152.371 161.351C152.371 162.098 152.561 162.802 152.897 163.416L147.361 169.028V188.641L140.711 192.449V159.062L147.077 147.552V123.829C148.998 123.37 150.426 121.654 150.426 119.608C150.426 117.211 148.466 115.267 146.049 115.267C143.631 115.267 141.672 117.211 141.672 119.608C141.672 121.217 142.554 122.622 143.866 123.372V146.736L137.499 158.246V194.288L134.496 196.008C133.559 196.544 132.549 196.9 131.515 197.075V151.043C133.185 150.432 134.377 148.838 134.377 146.969C134.377 144.571 132.417 142.628 130 142.628C127.582 142.628 125.623 144.571 125.623 146.969C125.623 148.77 126.728 150.314 128.303 150.972V197.043C127.333 196.858 126.386 196.513 125.504 196.008L122.319 194.184V158.287L116.659 146.777V123.349C117.949 122.594 118.814 121.201 118.814 119.608C118.814 117.211 116.855 115.267 114.437 115.267C112.02 115.267 110.06 117.211 110.06 119.608C110.06 121.668 111.507 123.393 113.448 123.838V147.512L119.107 159.022V192.345L112.639 188.641V169.028L107.102 163.416C107.438 162.802 107.629 162.098 107.629 161.351C107.629 158.953 105.669 157.01 103.252 157.01C100.835 157.01 98.8749 158.953 98.8749 161.351C98.8749 163.748 100.835 165.692 103.252 165.692C103.735 165.692 104.201 165.614 104.636 165.47L109.427 170.327V186.803L104.083 183.742V172.782C105.016 172.445 105.683 171.557 105.683 170.515C105.683 169.183 104.595 168.103 103.252 168.103C101.909 168.103 100.82 169.183 100.82 170.515C100.82 171.456 101.363 172.271 102.156 172.668V182.639L74.6082 166.865C71.8261 165.272 70.1122 162.328 70.1122 159.142V100.858C70.1122 97.6716 71.8261 94.7275 74.6082 93.1345L109.23 73.3106V78.7045C108.534 79.1289 108.071 79.8906 108.071 80.7597C108.071 82.0916 109.16 83.1713 110.503 83.1713C111.846 83.1713 112.934 82.0916 112.934 80.7597C112.934 79.6525 112.182 78.7196 111.157 78.4363V72.2072L119.973 67.159V83.5311L115.174 88.3952C114.57 88.0831 113.884 87.9068 113.155 87.9068C110.738 87.9068 108.778 89.8502 108.778 92.2476C108.778 94.645 110.738 96.5885 113.155 96.5885C115.573 96.5885 117.532 94.645 117.532 92.2476C117.532 91.2657 117.203 90.3599 116.649 89.6326L121.9 84.3105V66.0557L125.504 63.9922C126.413 63.4714 127.392 63.1209 128.394 62.9406V96.6268C126.771 97.2618 125.623 98.831 125.623 100.666C125.623 103.064 127.583 105.007 130 105.007C132.417 105.007 134.377 103.064 134.377 100.666C134.377 98.831 133.229 97.2618 131.606 96.6268V62.9406C132.608 63.1209 133.586 63.4714 134.496 63.9922Z" fill="white"/>
<path d="M130 149.399C131.353 149.399 132.45 148.311 132.45 146.969C132.45 145.627 131.353 144.539 130 144.539C128.647 144.539 127.55 145.627 127.55 146.969C127.55 148.311 128.647 149.399 130 149.399Z" fill="white"/>
<path d="M159.198 161.351C159.198 162.693 158.101 163.781 156.748 163.781C155.395 163.781 154.298 162.693 154.298 161.351C154.298 160.009 155.395 158.921 156.748 158.921C158.101 158.921 159.198 160.009 159.198 161.351Z" fill="white"/>
<path d="M105.702 161.351C105.702 162.693 104.605 163.781 103.252 163.781C101.899 163.781 100.802 162.693 100.802 161.351C100.802 160.009 101.899 158.921 103.252 158.921C104.605 158.921 105.702 160.009 105.702 161.351Z" fill="white"/>
<path d="M156.748 171.652C157.381 171.652 157.895 171.143 157.895 170.515C157.895 169.886 157.381 169.377 156.748 169.377C156.114 169.377 155.601 169.886 155.601 170.515C155.601 171.143 156.114 171.652 156.748 171.652Z" fill="white"/>
<path d="M104.399 170.515C104.399 171.143 103.885 171.652 103.252 171.652C102.618 171.652 102.105 171.143 102.105 170.515C102.105 169.886 102.618 169.377 103.252 169.377C103.885 169.377 104.399 169.886 104.399 170.515Z" fill="white"/>
<path d="M148.499 119.608C148.499 120.95 147.402 122.038 146.049 122.038C144.695 122.038 143.598 120.95 143.598 119.608C143.598 118.266 144.695 117.178 146.049 117.178C147.402 117.178 148.499 118.266 148.499 119.608Z" fill="white"/>
<path d="M114.437 122.038C115.79 122.038 116.887 120.95 116.887 119.608C116.887 118.266 115.79 117.178 114.437 117.178C113.084 117.178 111.987 118.266 111.987 119.608C111.987 120.95 113.084 122.038 114.437 122.038Z" fill="white"/>
<path d="M130 98.2364C131.353 98.2364 132.45 99.3243 132.45 100.666C132.45 102.008 131.353 103.096 130 103.096C128.647 103.096 127.55 102.008 127.55 100.666C127.55 99.3243 128.647 98.2364 130 98.2364Z" fill="white"/>
<path d="M149.56 92.2476C149.56 90.9056 148.463 89.8177 147.11 89.8177C145.757 89.8177 144.66 90.9056 144.66 92.2476C144.66 93.5896 145.757 94.6775 147.11 94.6775C148.463 94.6775 149.56 93.5896 149.56 92.2476Z" fill="white"/>
<path d="M115.605 92.2476C115.605 90.9056 114.508 89.8177 113.155 89.8177C111.802 89.8177 110.705 90.9056 110.705 92.2476C110.705 93.5896 111.802 94.6775 113.155 94.6775C114.508 94.6775 115.605 93.5896 115.605 92.2476Z" fill="white"/>
<path d="M111.65 80.7597C111.65 80.1314 111.136 79.6221 110.503 79.6221C109.869 79.6221 109.356 80.1314 109.356 80.7597C109.356 81.388 109.869 81.8973 110.503 81.8973C111.136 81.8973 111.65 81.388 111.65 80.7597Z" fill="white"/>
<path d="M151.175 80.7597C151.175 80.1314 150.661 79.6221 150.028 79.6221C149.394 79.6221 148.881 80.1314 148.881 80.7597C148.881 81.388 149.394 81.8973 150.028 81.8973C150.661 81.8973 151.175 81.388 151.175 80.7597Z" fill="white"/>
<path fill-rule="evenodd" clip-rule="evenodd" d="M136.102 55.6215C132.326 53.4595 127.674 53.4595 123.898 55.6215L68.1018 87.57C64.326 89.732 62 93.7275 62 98.0515V161.949C62 166.272 64.326 170.268 68.1018 172.43L123.898 204.379C127.674 206.54 132.326 206.54 136.102 204.379L191.898 172.43C195.674 170.268 198 166.272 198 161.949V98.0515C198 93.7275 195.674 89.732 191.898 87.57L136.102 55.6215ZM123.898 61.2339C127.674 59.0719 132.326 59.0719 136.102 61.2339L186.997 90.3762C190.773 92.5382 193.099 96.5337 193.099 100.858V159.142C193.099 163.466 190.773 167.462 186.997 169.624L136.102 198.766C132.326 200.928 127.674 200.928 123.898 198.766L73.0025 169.624C69.2267 167.462 66.9007 163.466 66.9007 159.142V100.858C66.9007 96.5337 69.2267 92.5382 73.0025 90.3762L123.898 61.2339Z" fill="white"/>
</svg>
