<svg width="260" height="260" viewBox="0 0 260 260" fill="none" xmlns="http://www.w3.org/2000/svg">
<circle cx="130" cy="130" r="127" fill="white" stroke="#3A2525" stroke-width="5"/>
<path d="M235.5 130C235.5 188.266 188.266 235.5 130 235.5C71.734 235.5 24.5 188.266 24.5 130C24.5 71.734 71.734 24.5 130 24.5C188.266 24.5 235.5 71.734 235.5 130Z" fill="#FEDD52" stroke="#3A2525" stroke-width="5"/>
<path d="M86.1788 191.999C86.1788 185.668 90.7698 183.22 93.0652 182.788C96.685 182.442 104.931 183.099 108.957 188.496C113.989 195.242 86.1788 194.982 86.1788 191.999Z" fill="white"/>
<path d="M174.97 191.999C174.97 185.668 170.379 183.22 168.084 182.788C164.464 182.442 156.218 183.099 152.192 188.496C147.16 195.242 174.97 194.982 174.97 191.999Z" fill="white"/>
<path d="M135.973 50.7243L129.219 48C122.213 51.073 119.963 66.0255 119.694 73.3989L121.406 75.1133L132.53 73.6863C134.649 67.7706 139.416 64.2161 141.535 63.1782L137.43 59.1567C131.497 61.2323 127.807 68.9295 126.703 72.5187C127.445 63.8009 133.192 54.3567 135.973 50.7243Z" fill="white"/>
<path d="M204.043 168.907C190.164 168.181 190.282 167.674 190.724 166.074C189.267 169.188 187.678 171.48 185.956 173.728C181.586 179.436 179.464 180.304 179.659 180.323C185.089 180.842 200.467 177.08 194.64 177.08C188.602 176.872 188.593 175.783 189.343 175.264H191.727C205.367 175.134 210.93 168.907 204.043 168.907Z" fill="white"/>
<path fill-rule="evenodd" clip-rule="evenodd" d="M184.178 100.281C156.479 61.2568 102.335 60.324 74.3922 100.28C45.3497 141.809 71.0998 170.474 81.1461 178.896C82.8609 180.333 85.1421 181.797 87.8829 183.215C88.3298 182.753 88.7959 182.355 89.2634 182.014C85.0649 177.575 82.2081 172.312 80.8774 166.305C80.5616 164.879 81.3184 163.433 82.67 162.879C83.897 162.377 86.9451 160.531 90.4468 158.102C91.8549 157.125 93.2736 156.097 94.601 155.089C87.2385 153.258 80.3349 149.866 77.2241 148.035C76.1407 147.397 75.5698 146.152 75.794 144.915C77.5352 135.308 81.3543 127.336 86.1601 120.835C85.5986 120.256 85.4843 119.338 85.5166 118.832C81.1729 117.483 80.5284 114.032 80.7491 112.475C82.2323 115.277 84.104 114.94 84.8545 114.421C81.888 114.006 81.8527 109.405 82.2059 107.156C82.9563 103.697 84.2983 98.4125 83.6626 104.951C83.1624 110.096 85.3085 109.955 87.1707 108.776C89.8721 102.925 95.8833 98.8536 102.865 98.8536C105.777 98.8536 108.519 99.5615 110.924 100.811C114.578 99.0976 117.97 97.9217 120.765 97.2369C121.681 97.0127 122.649 97.2317 123.378 97.8284L129.07 102.483L134.761 97.8284C135.491 97.2317 136.459 97.0127 137.374 97.2369C140.172 97.9222 143.567 99.0995 147.225 100.815C149.631 99.5631 152.376 98.8536 155.291 98.8536C162.273 98.8536 168.284 102.925 170.986 108.776C172.848 109.955 174.994 110.096 174.494 104.951C173.858 98.4125 175.2 103.697 175.95 107.156C176.304 109.405 176.268 114.006 173.302 114.421C174.052 114.94 175.924 115.277 177.407 112.475C177.628 114.032 176.983 117.483 172.64 118.832C172.672 119.341 172.556 120.266 171.987 120.844C176.789 127.344 180.605 135.313 182.346 144.915C182.57 146.152 181.999 147.397 180.916 148.035C177.806 149.865 170.906 153.256 163.547 155.087C167.891 158.362 173.077 161.696 175.656 162.963C176.865 163.557 177.53 164.885 177.282 166.209C176.555 170.087 174.427 175.56 170.365 180.895C171.417 181.347 172.606 182.09 173.685 183.199C174.684 182.576 175.665 181.921 176.63 181.231C193.956 168.842 207.751 133.491 184.178 100.281ZM114.105 94.9617C114.017 93.578 112.516 90.7326 107.218 90.4212L106.689 92.2374C108.101 91.978 111.35 92.3672 113.045 95.9996L114.105 94.9617ZM140.459 94.9617C140.547 93.578 142.048 90.7326 147.345 90.4212L147.875 92.2374C146.462 91.978 143.213 92.3672 141.518 95.9996L140.459 94.9617Z" fill="white"/>
<path fill-rule="evenodd" clip-rule="evenodd" d="M131.016 108.642C130.802 108.824 130.568 108.972 130.321 109.085C129.536 109.445 128.619 109.453 127.819 109.085C127.571 108.972 127.337 108.824 127.124 108.642L120.77 103.446C119.391 103.847 117.851 104.378 116.199 105.049C118.626 107.956 120.081 111.671 120.081 115.718C120.081 125.032 112.374 132.583 102.865 132.583C97.5065 132.583 92.7195 130.185 89.562 126.424C86.2639 131.357 83.6179 137.146 82.1206 143.887C86.6019 146.229 94.6726 149.661 101.767 150.252C102.945 150.35 103.956 151.131 104.348 152.246C104.741 153.362 104.441 154.603 103.584 155.417C101.168 157.71 97.3806 160.594 93.8668 163.031C91.5641 164.629 89.2091 166.154 87.3265 167.224C88.8781 172.179 91.8649 176.629 96.2799 180.372C101.075 180.668 107.729 182.388 111.401 187.768C111.618 188.086 111.783 188.391 111.9 188.684C117.594 190.539 124.226 191.803 131.791 192.369C138.78 192.303 144.64 191.097 149.525 189.196C149.622 188.75 149.836 188.274 150.182 187.768C153.211 183.33 158.27 181.382 162.64 180.67C167.2 176.052 169.737 170.961 170.869 167.192C166.138 164.468 158.597 159.254 154.556 155.417C153.699 154.603 153.399 153.362 153.791 152.246C154.184 151.131 155.194 150.35 156.373 150.252C163.467 149.661 171.538 146.229 176.019 143.887C174.523 137.151 171.88 131.366 168.585 126.435C165.427 130.189 160.645 132.583 155.291 132.583C145.783 132.583 138.075 125.032 138.075 115.718C138.075 111.673 139.529 107.96 141.953 105.054C140.296 104.381 138.752 103.848 137.37 103.446L131.016 108.642ZM115.032 144.129C118.011 145.588 131.644 140.995 136.27 139.363C134.21 141.097 131.708 142.383 129.101 143.438C126.202 144.613 124.086 145.188 122.889 145.514C122.086 145.732 121.696 145.838 121.759 145.937C122.072 146.43 131.801 148.011 132.398 147.305C137.095 142.239 138.362 139.681 138.367 138.554C138.665 138.371 138.933 138.101 138.737 137.772C136.971 134.745 132.619 128.224 129.334 126.356C126.05 124.488 123.022 126.788 121.918 128.172C118.122 132.756 111.43 142.365 115.032 144.129Z" fill="white"/>
<path fill-rule="evenodd" clip-rule="evenodd" d="M102.848 130.507C111.04 130.507 117.681 124.002 117.681 115.978C117.681 107.953 111.04 101.448 102.848 101.448C94.6567 101.448 88.016 107.953 88.016 115.978C88.016 124.002 94.6567 130.507 102.848 130.507ZM103.643 128.172C110.372 128.172 115.827 123.061 115.827 116.756C115.827 110.451 110.372 105.34 103.643 105.34C96.9145 105.34 91.4597 110.451 91.4597 116.756C91.4597 123.061 96.9145 128.172 103.643 128.172Z" fill="white"/>
<path fill-rule="evenodd" clip-rule="evenodd" d="M155.556 130.507C147.364 130.507 140.723 124.002 140.723 115.978C140.723 107.953 147.364 101.448 155.556 101.448C163.747 101.448 170.388 107.953 170.388 115.978C170.388 124.002 163.747 130.507 155.556 130.507ZM154.761 128.172C148.032 128.172 142.577 123.061 142.577 116.756C142.577 110.451 148.032 105.34 154.761 105.34C161.49 105.34 166.945 110.451 166.945 116.756C166.945 123.061 161.49 128.172 154.761 128.172Z" fill="white"/>
<path d="M149.927 113.179C151.246 113.179 152.316 112.128 152.316 110.832C152.316 110.218 152.075 109.659 151.682 109.24C152.884 108.756 154.223 108.486 155.634 108.486C160.838 108.486 165.057 112.163 165.057 116.698C165.057 121.234 160.838 124.911 155.634 124.911C150.429 124.911 146.21 121.234 146.21 116.698C146.21 114.966 146.825 113.36 147.875 112.036C148.292 112.72 149.055 113.179 149.927 113.179Z" fill="white"/>
<path d="M98.6944 113.179C100.014 113.179 101.083 112.128 101.083 110.832C101.083 110.218 100.843 109.659 100.45 109.241C101.652 108.756 102.99 108.486 104.402 108.486C109.606 108.486 113.825 112.163 113.825 116.698C113.825 121.234 109.606 124.911 104.402 124.911C99.197 124.911 94.9779 121.234 94.9779 116.698C94.9779 114.967 95.5929 113.36 96.643 112.036C97.0602 112.72 97.8228 113.179 98.6944 113.179Z" fill="white"/>
</svg>
